<svg width="21" height="26" viewBox="0 0 21 26" fill="none" xmlns="http://www.w3.org/2000/svg">
    <mask id="mask0_0_1" style="mask-type:luminance" maskUnits="userSpaceOnUse" x="0" y="14" width="20" height="13">
        <path d="M0.360943 22.285L3.68427 19.9041V16.41C3.68427 15.8618 3.90691 15.3359 4.30321 14.9483C4.69951 14.5606 5.23701 14.3428 5.79747 14.3428H17.8535C18.3984 14.3428 18.921 14.5545 19.3063 14.9314C19.6916 15.3084 19.908 15.8196 19.908 16.3526V24.0077C19.908 24.5408 19.6916 25.052 19.3063 25.4289C18.921 25.8058 18.3984 26.0176 17.8535 26.0176H6.2174C5.54557 26.0176 4.90126 25.7565 4.4262 25.2918C3.95115 24.827 3.68427 24.1967 3.68427 23.5395V23.4909L0.595745 23.1641C0.492598 23.1585 0.393907 23.1211 0.313906 23.0572C0.233905 22.9932 0.176724 22.9061 0.150608 22.8083C0.124491 22.7105 0.130788 22.6072 0.16859 22.5131C0.206392 22.4191 0.273747 22.3392 0.360943 22.285Z" fill="white"/>
    </mask>
    <g mask="url(#mask0_0_1)">
        <path d="M0 25.1299L1.13788 26.0001H0V25.1299Z" fill="#7532FF"/>
        <path d="M0 24.9268L1.39977 26.0002H1.13788L0 25.13V24.9268Z" fill="#7532FF"/>
        <path d="M0 24.7275L1.66618 25.9997H1.39977L0 24.9263V24.7275Z" fill="#7633FF"/>
        <path d="M0 24.5244L1.92807 25.9998H1.66618L0 24.7276V24.5244Z" fill="#7634FF"/>
        <path d="M0 24.3213L2.19448 25.9998H1.92807L0 24.5245V24.3213Z" fill="#7735FF"/>
        <path d="M0 24.1182L2.46088 25.9999H2.19448L0 24.3214V24.1182Z" fill="#7736FF"/>
        <path d="M0 23.915L2.72278 26H2.46088L0 24.1182V23.915Z" fill="#7837FE"/>
        <path d="M0 23.7119L2.98918 26.0001H2.72278L0 23.9151V23.7119Z" fill="#7838FE"/>
        <path d="M0 23.5132L3.25108 26.0001H2.98918L0 23.712V23.5132Z" fill="#7939FE"/>
        <path d="M0 23.3096L3.51748 25.9997H3.25108L0 23.5128V23.3096Z" fill="#793AFE"/>
        <path d="M0 23.1064L3.78389 25.9998H3.51748L0 23.3096V23.1064Z" fill="#7A3BFE"/>
        <path d="M0 22.9033L4.04578 25.9998H3.78389L0 23.1065V22.9033Z" fill="#7A3CFE"/>
        <path d="M0 22.7002L4.31219 25.9999H4.04578L0 22.9034V22.7002Z" fill="#7B3DFE"/>
        <path d="M0 22.4971L4.57408 26H4.31219L0 22.7003V22.4971Z" fill="#7B3EFE"/>
        <path d="M0 22.2983L4.84049 26H4.57408L0 22.4971V22.2983Z" fill="#7C3FFD"/>
        <path d="M0 22.0952L5.1069 26.0001H4.84049L0 22.2984V22.0952Z" fill="#7D40FD"/>
        <path d="M0 21.8921L5.36879 26.0001H5.1069L0 22.0953V21.8921Z" fill="#7D41FD"/>
        <path d="M0 21.6885L5.6352 25.9997H5.36879L0 21.8917V21.6885Z" fill="#7E42FD"/>
        <path d="M0 21.4854L5.90161 25.9998H5.6352L0 21.6885V21.4854Z" fill="#7E43FD"/>
        <path d="M0 21.2822L6.1635 25.9999H5.90161L0 21.4854V21.2822Z" fill="#7F44FD"/>
        <path d="M0 21.0835L6.42991 25.9999H6.1635L0 21.2823V21.0835Z" fill="#7F45FD"/>
        <path d="M0 20.8804L6.6918 26H6.42991L0 21.0836V20.8804Z" fill="#8046FD"/>
        <path d="M0 20.6772L6.95821 26H6.6918L0 20.8804V20.6772Z" fill="#8047FC"/>
        <path d="M0 20.4741L7.22461 26.0001H6.95821L0 20.6773V20.4741Z" fill="#8148FC"/>
        <path d="M0 20.2705L7.48651 25.9997H7.22461L0 20.4737V20.2705Z" fill="#8149FC"/>
        <path d="M0 20.0674L7.75291 25.9998H7.48651L0 20.2706V20.0674Z" fill="#824AFC"/>
        <path d="M0 19.8687L8.01481 25.9998H7.75291L0 20.0674V19.8687Z" fill="#824BFC"/>
        <path d="M0 19.6655L8.28121 25.9999H8.01481L0 19.8687V19.6655Z" fill="#834CFC"/>
        <path d="M0 19.4624L8.54762 25.9999H8.28121L0 19.6656V19.4624Z" fill="#844DFC"/>
        <path d="M0 19.2593L8.80951 26H8.54762L0 19.4625V19.2593Z" fill="#844EFC"/>
        <path d="M0 19.0562L9.07592 26.0001H8.80951L0 19.2593V19.0562Z" fill="#854FFB"/>
        <path d="M0 18.853L9.33781 26.0002H9.07592L0 19.0562V18.853Z" fill="#8550FB"/>
        <path d="M0 18.6538L9.60422 25.9997H9.33781L0 18.8526V18.6538Z" fill="#8651FB"/>
        <path d="M0 18.4507L9.87063 25.9998H9.60422L0 18.6539V18.4507Z" fill="#8652FB"/>
        <path d="M0 18.4464L0.0993384 18.3228L10.1325 26H9.87063L0 18.4509V18.4464Z" fill="#8753FB"/>
        <path d="M0.0996094 18.3229L0.198948 18.1992L10.3992 26.0001H10.1328L0.0996094 18.3229Z" fill="#8754FB"/>
        <path d="M0.198242 18.1989L0.297581 18.0708L10.6649 25.9998H10.3985L0.198242 18.1989Z" fill="#8855FB"/>
        <path d="M0.297852 18.0709L0.401705 17.9473L10.9271 25.9999H10.6652L0.297852 18.0709Z" fill="#8856FB"/>
        <path d="M0.402344 17.9474L0.501682 17.8193L11.1941 26.0001H10.9277L0.402344 17.9474Z" fill="#8957FA"/>
        <path d="M0.500977 17.819L0.600315 17.6953L11.4553 25.9998H11.1934L0.500977 17.819Z" fill="#8958FA"/>
        <path d="M0.600586 17.6955L0.699924 17.5674L11.722 25.9999H11.4556L0.600586 17.6955Z" fill="#8A59FA"/>
        <path d="M0.700195 17.5675L0.799534 17.4438L11.9887 26.0001H11.7222L0.700195 17.5675Z" fill="#8B5AFA"/>
        <path d="M0.798828 17.4435L0.902682 17.3154L12.2498 25.9998H11.9879L0.798828 17.4435Z" fill="#8B5BFA"/>
        <path d="M0.90332 17.3156L1.00266 17.1919L12.5169 25.9999H12.2505L0.90332 17.3156Z" fill="#8C5CFA"/>
        <path d="M1.00195 17.192L1.10129 17.0684L12.7781 26.0001H12.5162L1.00195 17.192Z" fill="#8C5DFA"/>
        <path d="M1.10156 17.068L1.20542 16.9399L13.0448 25.9997H12.7783L1.10156 17.068Z" fill="#8D5EFA"/>
        <path d="M1.20605 16.9401L1.30539 16.8164L13.3118 25.9999H13.0454L1.20605 16.9401Z" fill="#8D60F9"/>
        <path d="M1.30469 16.8166L1.40403 16.6885L13.573 26.0001H13.3111L1.30469 16.8166Z" fill="#8E61F9"/>
        <path d="M1.4043 16.6881L1.50364 16.5645L13.8397 25.9997H13.5733L1.4043 16.6881Z" fill="#8E62F9"/>
        <path d="M1.50391 16.5646L1.60776 16.4365L14.1063 25.9999H13.8399L1.50391 16.5646Z" fill="#8F63F9"/>
        <path d="M1.60742 16.4367L1.70676 16.313L14.3679 26H14.106L1.60742 16.4367Z" fill="#8F64F9"/>
        <path d="M1.70703 16.3126L1.80637 16.189L14.6346 25.9997H14.3682L1.70703 16.3126Z" fill="#9065F9"/>
        <path d="M1.80664 16.1891L1.90598 16.061L14.8967 25.9999H14.6348L1.80664 16.1891Z" fill="#9166F9"/>
        <path d="M1.90527 16.0612L2.00461 15.9375L15.1624 26H14.896L1.90527 16.0612Z" fill="#9167F9"/>
        <path d="M2.00488 15.9372L2.10874 15.8091L15.4291 25.9997H15.1627L2.00488 15.9372Z" fill="#9268F8"/>
        <path d="M2.1084 15.8092L2.20774 15.6855L15.6907 25.9999H15.4288L2.1084 15.8092Z" fill="#9269F8"/>
        <path d="M2.20801 15.6857L2.30735 15.5576L15.9574 26H15.6909L2.20801 15.6857Z" fill="#936AF8"/>
        <path d="M2.30762 15.5573L2.40696 15.4336L16.2195 25.9997H15.9576L2.30762 15.5573Z" fill="#936BF8"/>
        <path d="M2.40625 15.4338L2.5101 15.3057L16.4852 25.9999H16.2188L2.40625 15.4338Z" fill="#946CF8"/>
        <path d="M2.51074 15.3058L2.61008 15.1821L16.7523 26H16.4859L2.51074 15.3058Z" fill="#946DF8"/>
        <path d="M2.61035 15.1823L2.70969 15.0586L17.0144 26.0001H16.7525L2.61035 15.1823Z" fill="#956EF8"/>
        <path d="M2.70898 15.0583L2.80832 14.9302L17.2801 25.9998H17.0137L2.70898 15.0583Z" fill="#956FF8"/>
        <path d="M2.80859 14.9303L2.91245 14.8066L17.5468 26H17.2804L2.80859 14.9303Z" fill="#9670F7"/>
        <path d="M2.91211 14.8068L3.01145 14.6787L17.8084 26.0002H17.5465L2.91211 14.8068Z" fill="#9671F7"/>
        <path d="M3.01172 14.6784L3.11106 14.5547L18.075 25.9998H17.8086L3.01172 14.6784Z" fill="#9772F7"/>
        <path d="M3.11133 14.5549L3.21067 14.4268L18.3372 26H18.0753L3.11133 14.5549Z" fill="#9873F7"/>
        <path d="M3.20996 14.4267L3.27769 14.3428H3.36348L18.6029 25.9999H18.3365L3.20996 14.4267Z" fill="#9874F7"/>
        <path d="M3.63067 14.3428L18.8701 25.9999H18.6037L3.36426 14.3428H3.63067Z" fill="#9975F7"/>
        <path d="M3.89178 14.3428L19.1312 25.9999H18.8693L3.62988 14.3428H3.89178Z" fill="#9976F7"/>
        <path d="M4.15899 14.3428L19.3984 25.9999H19.132L3.89258 14.3428H4.15899Z" fill="#9A77F7"/>
        <path d="M4.42461 14.3428L19.664 25.9999H19.3976L4.1582 14.3428H4.42461Z" fill="#9A78F6"/>
        <path d="M4.6867 14.3428L19.9081 25.9867V25.9999H19.6642L4.4248 14.3428H4.6867Z" fill="#9B79F6"/>
        <path d="M4.95293 14.3428L19.9079 25.7835V25.9867L4.68652 14.3428H4.95293Z" fill="#9B7AF6"/>
        <path d="M5.21502 14.3428L19.9081 25.5803V25.7835L4.95312 14.3428H5.21502Z" fill="#9C7BF6"/>
        <path d="M5.48125 14.3428L19.9079 25.3771V25.5803L5.21484 14.3428H5.48125Z" fill="#9C7CF6"/>
        <path d="M5.74785 14.3428L19.9081 25.1739V25.3771L5.48145 14.3428H5.74785Z" fill="#9D7DF6"/>
        <path d="M6.00994 14.3428L19.9083 24.9707V25.1739L5.74805 14.3428H6.00994Z" fill="#9D7EF6"/>
        <path d="M6.27617 14.3428L19.9081 24.7719V24.9707L6.00977 14.3428H6.27617Z" fill="#9E7FF6"/>
        <path d="M6.53826 14.3428L19.9083 24.5687V24.7719L6.27637 14.3428H6.53826Z" fill="#9F80F5"/>
        <path d="M6.80449 14.3428L19.9081 24.3655V24.5687L6.53809 14.3428H6.80449Z" fill="#9F81F5"/>
        <path d="M7.0711 14.3428L19.9083 24.1623V24.3655L6.80469 14.3428H7.0711Z" fill="#A082F5"/>
        <path d="M7.33318 14.3428L19.9085 23.9592V24.1623L7.07129 14.3428H7.33318Z" fill="#A083F5"/>
        <path d="M7.59942 14.3428L19.9084 23.756V23.9592L7.33301 14.3428H7.59942Z" fill="#A184F5"/>
        <path d="M7.86602 14.3428L19.9085 23.5572V23.756L7.59961 14.3428H7.86602Z" fill="#A185F5"/>
        <path d="M8.1281 14.3428L19.9087 23.354V23.5572L7.86621 14.3428H8.1281Z" fill="#A286F5"/>
        <path d="M8.39434 14.3428L19.9086 23.1508V23.354L8.12793 14.3428H8.39434Z" fill="#A287F5"/>
        <path d="M8.65642 14.3428L19.9088 22.9476V23.1508L8.39453 14.3428H8.65642Z" fill="#A388F4"/>
        <path d="M8.92266 14.3428L19.9086 22.7444V22.9476L8.65625 14.3428H8.92266Z" fill="#A389F4"/>
        <path d="M9.18926 14.3428L19.9088 22.5412V22.7444L8.92285 14.3428H9.18926Z" fill="#A48AF4"/>
        <path d="M9.45037 14.3428L19.908 22.3424V22.5412L9.18848 14.3428H9.45037Z" fill="#A48BF4"/>
        <path d="M9.71758 14.3428L19.9088 22.1392V22.3424L9.45117 14.3428H9.71758Z" fill="#A58CF4"/>
        <path d="M19.908 22.1392L9.7168 14.3428H19.908V22.1392Z" fill="#A58CF4"/>
    </g>
    <mask id="mask1_0_1" style="mask-type:luminance" maskUnits="userSpaceOnUse" x="3" y="0" width="4" height="13">
        <path d="M4.88098 0.852539H4.61908C3.74377 0.852539 3.03418 1.54671 3.03418 2.403V11.0122C3.03418 11.8685 3.74377 12.5627 4.61908 12.5627H4.88098C5.75629 12.5627 6.46587 11.8685 6.46587 11.0122V2.403C6.46587 1.54671 5.75629 0.852539 4.88098 0.852539Z" fill="white"/>
    </mask>
    <g mask="url(#mask1_0_1)">
        <path d="M3.03418 10.6587L6.46136 12.2092V12.5669H3.03418V10.6587Z" fill="#7532FF"/>
        <path d="M3.03418 10.5967L6.46136 12.1471V12.209L3.03418 10.6585V10.5967Z" fill="#7532FF"/>
        <path d="M3.03418 10.5352L6.46136 12.09V12.1475L3.03418 10.597V10.5352Z" fill="#7633FF"/>
        <path d="M3.03418 10.4731L6.46136 12.028V12.0899L3.03418 10.535V10.4731Z" fill="#7634FF"/>
        <path d="M3.03418 10.4155L6.46136 11.966V12.0278L3.03418 10.473V10.4155Z" fill="#7735FF"/>
        <path d="M3.03418 10.354L6.46136 11.9045V11.9663L3.03418 10.4158V10.354Z" fill="#7736FF"/>
        <path d="M3.03418 10.292L6.46136 11.8425V11.9043L3.03418 10.3538V10.292Z" fill="#7837FE"/>
        <path d="M3.03418 10.23L6.46136 11.7849V11.8423L3.03418 10.2918V10.23Z" fill="#7838FE"/>
        <path d="M3.03418 10.1685L6.46136 11.7233V11.7852L3.03418 10.2303V10.1685Z" fill="#7939FE"/>
        <path d="M3.03418 10.1108L6.46136 11.6613V11.7231L3.03418 10.1683V10.1108Z" fill="#793AFE"/>
        <path d="M3.03418 10.0493L6.46136 11.5998V11.6616L3.03418 10.1112V10.0493Z" fill="#7A3BFE"/>
        <path d="M3.03418 9.9873L6.46136 11.5378V11.5996L3.03418 10.0491V9.9873Z" fill="#7A3CFE"/>
        <path d="M3.03418 9.92529L6.46136 11.4758V11.5376L3.03418 9.98714V9.92529Z" fill="#7B3DFE"/>
        <path d="M3.03418 9.86377L6.46136 11.4186V11.4761L3.03418 9.92561V9.86377Z" fill="#7B3EFE"/>
        <path d="M3.03418 9.80615L6.46136 11.3566V11.4185L3.03418 9.86358V9.80615Z" fill="#7C3FFD"/>
        <path d="M3.03418 9.74414L6.46136 11.2946V11.3564L3.03418 9.80598V9.74414Z" fill="#7D40FD"/>
        <path d="M3.03418 9.68262L6.46136 11.2331V11.2949L3.03418 9.74446V9.68262Z" fill="#7D41FD"/>
        <path d="M3.03418 9.62061L6.46136 11.1711V11.2329L3.03418 9.68245V9.62061Z" fill="#7E42FD"/>
        <path d="M3.03418 9.55859L6.46136 11.1135V11.1709L3.03418 9.62044V9.55859Z" fill="#7E43FD"/>
        <path d="M3.03418 9.49707L6.46136 11.0519V11.1138L3.03418 9.55891V9.49707Z" fill="#7F44FD"/>
        <path d="M3.03418 9.43945L6.46136 10.9899V11.0518L3.03418 9.49688V9.43945Z" fill="#7F45FD"/>
        <path d="M3.03418 9.37744L6.46136 10.9279V10.9897L3.03418 9.43928V9.37744Z" fill="#8046FD"/>
        <path d="M3.03418 9.31592L6.46136 10.8664V10.9282L3.03418 9.37776V9.31592Z" fill="#8047FC"/>
        <path d="M3.03418 9.25391L6.46136 10.8044V10.8662L3.03418 9.31575V9.25391Z" fill="#8148FC"/>
        <path d="M3.03418 9.19189L6.46136 10.7468V10.8042L3.03418 9.25374V9.19189Z" fill="#8149FC"/>
        <path d="M3.03418 9.13477L6.46136 10.6852V10.7471L3.03418 9.19219V9.13477Z" fill="#824AFC"/>
        <path d="M3.03418 9.07275L6.46136 10.6232V10.6851L3.03418 9.1346V9.07275Z" fill="#824BFC"/>
        <path d="M3.03418 9.01123L6.46136 10.5617V10.6235L3.03418 9.07307V9.01123Z" fill="#834CFC"/>
        <path d="M3.03418 8.94922L6.46136 10.4997V10.5615L3.03418 9.01106V8.94922Z" fill="#844DFC"/>
        <path d="M3.03418 8.88721L6.46136 10.4421V10.4995L3.03418 8.94905V8.88721Z" fill="#844EFC"/>
        <path d="M3.03418 8.82568L6.46136 10.3806V10.4424L3.03418 8.88753V8.82568Z" fill="#854FFB"/>
        <path d="M3.03418 8.76807L6.46136 10.3185V10.3804L3.03418 8.82549V8.76807Z" fill="#8550FB"/>
        <path d="M3.03418 8.70605L6.46136 10.2565V10.3184L3.03418 8.7679V8.70605Z" fill="#8651FB"/>
        <path d="M3.03418 8.64453L6.46136 10.195V10.2568L3.03418 8.70637V8.64453Z" fill="#8652FB"/>
        <path d="M3.03418 8.58252L6.46136 10.133V10.1948L3.03418 8.64436V8.58252Z" fill="#8753FB"/>
        <path d="M3.03418 8.52051L6.46136 10.0754V10.1328L3.03418 8.58235V8.52051Z" fill="#8754FB"/>
        <path d="M3.03418 8.46338L6.46136 10.0138V10.0757L3.03418 8.5208V8.46338Z" fill="#8855FB"/>
        <path d="M3.03418 8.40137L6.46136 9.95183V10.0137L3.03418 8.46321V8.40137Z" fill="#8856FB"/>
        <path d="M3.03418 8.33984L6.46136 9.8903V9.95214L3.03418 8.40169V8.33984Z" fill="#8957FA"/>
        <path d="M3.03418 8.27783L6.46136 9.82829V9.89013L3.03418 8.33967V8.27783Z" fill="#8958FA"/>
        <path d="M3.03418 8.21582L6.46136 9.76628V9.82812L3.03418 8.27766V8.21582Z" fill="#8A59FA"/>
        <path d="M3.03418 8.1543L6.46136 9.70917V9.7666L3.03418 8.21614V8.1543Z" fill="#8B5AFA"/>
        <path d="M3.03418 8.09668L6.46136 9.64714V9.70898L3.03418 8.1541V8.09668Z" fill="#8B5BFA"/>
        <path d="M3.03418 8.03467L6.46136 9.58513V9.64697L3.03418 8.09651V8.03467Z" fill="#8C5CFA"/>
        <path d="M3.03418 7.97314L6.46136 9.5236V9.58545L3.03418 8.03499V7.97314Z" fill="#8C5DFA"/>
        <path d="M3.03418 7.91113L6.46136 9.46601V9.52343L3.03418 7.97297V7.91113Z" fill="#8D5EFA"/>
        <path d="M3.03418 7.84912L6.46136 9.404V9.46584L3.03418 7.91096V7.84912Z" fill="#8D60F9"/>
        <path d="M3.03418 7.79199L6.46136 9.34245V9.40429L3.03418 7.84942V7.79199Z" fill="#8E61F9"/>
        <path d="M3.03418 7.72998L6.46136 9.28044V9.34228L3.03418 7.79182V7.72998Z" fill="#8E62F9"/>
        <path d="M3.03418 7.66797L6.46136 9.21843V9.28027L3.03418 7.72981V7.66797Z" fill="#8F63F9"/>
        <path d="M3.03418 7.60645L6.46136 9.1569V9.21875L3.03418 7.66829V7.60645Z" fill="#8F64F9"/>
        <path d="M3.03418 7.54443L6.46136 9.09489V9.15673L3.03418 7.60627V7.54443Z" fill="#9065F9"/>
        <path d="M3.03418 7.48242L6.46136 9.0373V9.09472L3.03418 7.54426V7.48242Z" fill="#9166F9"/>
        <path d="M3.03418 7.42529L6.46136 8.97575V9.03759L3.03418 7.48272V7.42529Z" fill="#9167F9"/>
        <path d="M3.03418 7.36328L6.46136 8.91374V8.97558L3.03418 7.42512V7.36328Z" fill="#9268F8"/>
        <path d="M3.03418 7.30176L6.46136 8.85222V8.91406L3.03418 7.3636V7.30176Z" fill="#9269F8"/>
        <path d="M3.03418 7.23975L6.46136 8.79462V8.85205L3.03418 7.30159V7.23975Z" fill="#936AF8"/>
        <path d="M3.03418 7.17773L6.46136 8.73261V8.79445L3.03418 7.23958V7.17773Z" fill="#936BF8"/>
        <path d="M3.03418 7.11621L6.46136 8.67109V8.73293L3.03418 7.17805V7.11621Z" fill="#946CF8"/>
        <path d="M3.03418 7.05859L6.46136 8.60905V8.67089L3.03418 7.11602V7.05859Z" fill="#946DF8"/>
        <path d="M3.03418 6.99658L6.46136 8.54704V8.60888L3.03418 7.05842V6.99658Z" fill="#956EF8"/>
        <path d="M3.03418 6.93506L6.46136 8.48552V8.54736L3.03418 6.9969V6.93506Z" fill="#956FF8"/>
        <path d="M3.03418 6.87305L6.46136 8.42792V8.48535L3.03418 6.93489V6.87305Z" fill="#9670F7"/>
        <path d="M3.03418 6.81104L6.46136 8.36591V8.42775L3.03418 6.87288V6.81104Z" fill="#9671F7"/>
        <path d="M3.03418 6.75391L6.46136 8.30436V8.36621L3.03418 6.81133V6.75391Z" fill="#9772F7"/>
        <path d="M3.03418 6.69189L6.46136 8.24235V8.30419L3.03418 6.75374V6.69189Z" fill="#9873F7"/>
        <path d="M3.03418 6.62988L6.46136 8.18034V8.24218L3.03418 6.69172V6.62988Z" fill="#9874F7"/>
        <path d="M3.03418 6.56836L6.46136 8.12324V8.18066L3.03418 6.6302V6.56836Z" fill="#9975F7"/>
        <path d="M3.03418 6.50635L6.46136 8.06122V8.12307L3.03418 6.56819V6.50635Z" fill="#9976F7"/>
        <path d="M3.03418 6.44922L6.46136 7.99968V8.06152L3.03418 6.50664V6.44922Z" fill="#9A77F7"/>
        <path d="M3.03418 6.38721L6.46136 7.93767V7.99951L3.03418 6.44905V6.38721Z" fill="#9A78F6"/>
        <path d="M3.03418 6.3252L6.46136 7.87565V7.9375L3.03418 6.38704V6.3252Z" fill="#9B79F6"/>
        <path d="M3.03418 6.26367L6.46136 7.81413V7.87597L3.03418 6.32551V6.26367Z" fill="#9B7AF6"/>
        <path d="M3.03418 6.20166L6.46136 7.75654V7.81396L3.03418 6.2635V6.20166Z" fill="#9C7BF6"/>
        <path d="M3.03418 6.13965L6.46136 7.69452V7.75637L3.03418 6.20149V6.13965Z" fill="#9C7CF6"/>
        <path d="M3.03418 6.08252L6.46136 7.63298V7.69482L3.03418 6.13994V6.08252Z" fill="#9D7DF6"/>
        <path d="M3.03418 6.02051L6.46136 7.57097V7.63281L3.03418 6.08235V6.02051Z" fill="#9D7EF6"/>
        <path d="M3.03418 5.9585L6.46136 7.50895V7.5708L3.03418 6.02034V5.9585Z" fill="#9E7FF6"/>
        <path d="M3.03418 5.89697L6.46136 7.44743V7.50927L3.03418 5.95881V5.89697Z" fill="#9F80F5"/>
        <path d="M3.03418 5.83496L6.46136 7.38984V7.44726L3.03418 5.8968V5.83496Z" fill="#9F81F5"/>
        <path d="M3.03418 5.77783L6.46136 7.32829V7.39013L3.03418 5.83526V5.77783Z" fill="#A082F5"/>
        <path d="M3.03418 5.71582L6.46136 7.26628V7.32812L3.03418 5.77766V5.71582Z" fill="#A083F5"/>
        <path d="M3.03418 5.65381L6.46136 7.20427V7.26611L3.03418 5.71565V5.65381Z" fill="#A184F5"/>
        <path d="M3.03418 5.59229L6.46136 7.14274V7.20459L3.03418 5.65413V5.59229Z" fill="#A185F5"/>
        <path d="M3.03418 5.53027L6.46136 7.08515V7.14257L3.03418 5.59211V5.53027Z" fill="#A286F5"/>
        <path d="M3.03418 5.46826L6.46136 7.02314V7.08498L3.03418 5.5301V5.46826Z" fill="#A287F5"/>
        <path d="M3.03418 5.41113L6.46136 6.96159V7.02343L3.03418 5.46856V5.41113Z" fill="#A388F4"/>
        <path d="M3.03418 5.34912L6.46136 6.89958V6.96142L3.03418 5.41096V5.34912Z" fill="#A389F4"/>
        <path d="M3.03418 5.28711L6.46136 6.83757V6.89941L3.03418 5.34895V5.28711Z" fill="#A48AF4"/>
        <path d="M3.03418 5.22559L6.46136 6.78046V6.83789L3.03418 5.28743V5.22559Z" fill="#A48BF4"/>
        <path d="M3.03418 5.16357L6.46136 6.71845V6.78029L3.03418 5.22542V5.16357Z" fill="#A58CF4"/>
        <path d="M6.46136 6.71864L3.03418 5.16376V0.856934H6.46136V6.71864Z" fill="#A58CF4"/>
    </g>
    <mask id="mask2_0_1" style="mask-type:luminance" maskUnits="userSpaceOnUse" x="7" y="0" width="5" height="13">
        <path d="M9.71253 0H9.559C8.65376 0 7.91992 0.717898 7.91992 1.60347V10.9636C7.91992 11.8492 8.65376 12.5671 9.559 12.5671H9.71253C10.6178 12.5671 11.3516 11.8492 11.3516 10.9636V1.60347C11.3516 0.717898 10.6178 0 9.71253 0Z" fill="white"/>
    </mask>
    <g mask="url(#mask2_0_1)">
        <path d="M7.91992 10.5483L11.3471 12.0988V12.567H7.91992V10.5483Z" fill="#7532FF"/>
        <path d="M7.91992 10.4819L11.3471 12.0368V12.0987L7.91992 10.5482V10.4819Z" fill="#7532FF"/>
        <path d="M7.91992 10.4204L11.3471 11.9709V12.0371L7.91992 10.4823V10.4204Z" fill="#7633FF"/>
        <path d="M7.91992 10.354L11.3471 11.9045V11.9707L7.91992 10.4203V10.354Z" fill="#7634FF"/>
        <path d="M7.91992 10.2876L11.3471 11.8381V11.9043L7.91992 10.3539V10.2876Z" fill="#7735FF"/>
        <path d="M7.91992 10.2217L11.3471 11.7766V11.8384L7.91992 10.2879V10.2217Z" fill="#7736FF"/>
        <path d="M7.91992 10.1597L11.3471 11.7101V11.7764L7.91992 10.2215V10.1597Z" fill="#7837FE"/>
        <path d="M7.91992 10.0933L11.3471 11.6437V11.71L7.91992 10.1595V10.0933Z" fill="#7838FE"/>
        <path d="M7.91992 10.0273L11.3471 11.5778V11.6441L7.91992 10.0936V10.0273Z" fill="#7939FE"/>
        <path d="M7.91992 9.96094L11.3471 11.5158V11.5777L7.91992 10.0272V9.96094Z" fill="#793AFE"/>
        <path d="M7.91992 9.89893L11.3471 11.4494V11.5156L7.91992 9.96077V9.89893Z" fill="#7A3BFE"/>
        <path d="M7.91992 9.83301L11.3471 11.3835V11.4497L7.91992 9.89927V9.83301Z" fill="#7A3CFE"/>
        <path d="M7.91992 9.7666L11.3471 11.3171V11.3833L7.91992 9.83286V9.7666Z" fill="#7B3DFE"/>
        <path d="M7.91992 9.7002L11.3471 11.2551V11.3169L7.91992 9.76645V9.7002Z" fill="#7B3EFE"/>
        <path d="M7.91992 9.63867L11.3471 11.1891V11.2554L7.91992 9.70051V9.63867Z" fill="#7C3FFD"/>
        <path d="M7.91992 9.57227L11.3471 11.1227V11.189L7.91992 9.63852V9.57227Z" fill="#7D40FD"/>
        <path d="M7.91992 9.50586L11.3471 11.0563V11.1226L7.91992 9.57212V9.50586Z" fill="#7D41FD"/>
        <path d="M7.91992 9.43945L11.3471 10.9943V11.0562L7.91992 9.50571V9.43945Z" fill="#7E42FD"/>
        <path d="M7.91992 9.37793L11.3471 10.9284V10.9946L7.91992 9.43977V9.37793Z" fill="#7E43FD"/>
        <path d="M7.91992 9.31152L11.3471 10.862V10.9282L7.91992 9.37778V9.31152Z" fill="#7F44FD"/>
        <path d="M7.91992 9.24512L11.3471 10.7956V10.8618L7.91992 9.31138V9.24512Z" fill="#7F45FD"/>
        <path d="M7.91992 9.1792L11.3471 10.7341V10.7959L7.91992 9.24546V9.1792Z" fill="#8046FD"/>
        <path d="M7.91992 9.11719L11.3471 10.6676V10.7339L7.91992 9.17903V9.11719Z" fill="#8047FC"/>
        <path d="M7.91992 9.05078L11.3471 10.6012V10.6675L7.91992 9.11704V9.05078Z" fill="#8148FC"/>
        <path d="M7.91992 8.98486L11.3471 10.5353V10.6016L7.91992 9.05112V8.98486Z" fill="#8149FC"/>
        <path d="M7.91992 8.91846L11.3471 10.4733V10.5352L7.91992 8.98472V8.91846Z" fill="#824AFC"/>
        <path d="M7.91992 8.85645L11.3471 10.4069V10.4732L7.91992 8.91829V8.85645Z" fill="#824BFC"/>
        <path d="M7.91992 8.79053L11.3471 10.341V10.4072L7.91992 8.85679V8.79053Z" fill="#834CFC"/>
        <path d="M7.91992 8.72412L11.3471 10.2746V10.3408L7.91992 8.79038V8.72412Z" fill="#844DFC"/>
        <path d="M7.91992 8.65771L11.3471 10.2126V10.2744L7.91992 8.72397V8.65771Z" fill="#844EFC"/>
        <path d="M7.91992 8.59619L11.3471 10.1467V10.2129L7.91992 8.65803V8.59619Z" fill="#854FFB"/>
        <path d="M7.91992 8.52979L11.3471 10.0802V10.1465L7.91992 8.59604V8.52979Z" fill="#8550FB"/>
        <path d="M7.91992 8.46338L11.3471 10.0138V10.0801L7.91992 8.52964V8.46338Z" fill="#8651FB"/>
        <path d="M7.91992 8.39697L11.3471 9.95185V10.0137L7.91992 8.46323V8.39697Z" fill="#8652FB"/>
        <path d="M7.91992 8.33545L11.3471 9.88591V9.95217L7.91992 8.39729V8.33545Z" fill="#8753FB"/>
        <path d="M7.91992 8.26904L11.3471 9.8195V9.88576L7.91992 8.3353V8.26904Z" fill="#8754FB"/>
        <path d="M7.91992 8.20264L11.3471 9.7531V9.81935L7.91992 8.2689V8.20264Z" fill="#8855FB"/>
        <path d="M7.91992 8.13672L11.3471 9.69159V9.75344L7.91992 8.20298V8.13672Z" fill="#8856FB"/>
        <path d="M7.91992 8.07471L11.3471 9.62517V9.69142L7.91992 8.13655V8.07471Z" fill="#8957FA"/>
        <path d="M7.91992 8.0083L11.3471 9.55876V9.62502L7.91992 8.07456V8.0083Z" fill="#8958FA"/>
        <path d="M7.91992 7.94238L11.3471 9.49726V9.5591L7.91992 8.00864V7.94238Z" fill="#8A59FA"/>
        <path d="M7.91992 7.87598L11.3471 9.43085V9.49711L7.91992 7.94224V7.87598Z" fill="#8B5AFA"/>
        <path d="M7.91992 7.81396L11.3471 9.36442V9.43068L7.91992 7.87581V7.81396Z" fill="#8B5BFA"/>
        <path d="M7.91992 7.74805L11.3471 9.2985V9.36476L7.91992 7.81431V7.74805Z" fill="#8C5CFA"/>
        <path d="M7.91992 7.68164L11.3471 9.23652V9.29836L7.91992 7.7479V7.68164Z" fill="#8C5DFA"/>
        <path d="M7.91992 7.61963L11.3471 9.17009V9.23635L7.91992 7.68147V7.61963Z" fill="#8D5EFA"/>
        <path d="M7.91992 7.55371L11.3471 9.10417V9.17043L7.91992 7.61997V7.55371Z" fill="#8D60F9"/>
        <path d="M7.91992 7.4873L11.3471 9.03776V9.10402L7.91992 7.55356V7.4873Z" fill="#8E61F9"/>
        <path d="M7.91992 7.4209L11.3471 8.97577V9.03762L7.91992 7.48716V7.4209Z" fill="#8E62F9"/>
        <path d="M7.91992 7.35938L11.3471 8.90983V8.97609L7.91992 7.42122V7.35938Z" fill="#8F63F9"/>
        <path d="M7.91992 7.29297L11.3471 8.84343V8.90969L7.91992 7.35923V7.29297Z" fill="#8F64F9"/>
        <path d="M7.91992 7.22656L11.3471 8.77702V8.84328L7.91992 7.29282V7.22656Z" fill="#9065F9"/>
        <path d="M7.91992 7.16016L11.3471 8.71503V8.77687L7.91992 7.22642V7.16016Z" fill="#9166F9"/>
        <path d="M7.91992 7.09863L11.3471 8.64909V8.71535L7.91992 7.16047V7.09863Z" fill="#9167F9"/>
        <path d="M7.91992 7.03223L11.3471 8.58269V8.64894L7.91992 7.09849V7.03223Z" fill="#9268F8"/>
        <path d="M7.91992 6.96582L11.3471 8.51628V8.58254L7.91992 7.03208V6.96582Z" fill="#9269F8"/>
        <path d="M7.91992 6.8999L11.3471 8.45478V8.51662L7.91992 6.96616V6.8999Z" fill="#936AF8"/>
        <path d="M7.91992 6.8335L11.3471 8.38837V8.45463L7.91992 6.89975V6.8335Z" fill="#936BF8"/>
        <path d="M7.91992 6.77148L11.3471 8.32194V8.3882L7.91992 6.83333V6.77148Z" fill="#946CF8"/>
        <path d="M7.91992 6.70557L11.3471 8.25603V8.32228L7.91992 6.77183V6.70557Z" fill="#946DF8"/>
        <path d="M7.91992 6.63916L11.3471 8.19404V8.25588L7.91992 6.70542V6.63916Z" fill="#956EF8"/>
        <path d="M7.91992 6.57275L11.3471 8.12763V8.19389L7.91992 6.63901V6.57275Z" fill="#956FF8"/>
        <path d="M7.91992 6.51123L11.3471 8.06169V8.12795L7.91992 6.57307V6.51123Z" fill="#9670F7"/>
        <path d="M7.91992 6.44482L11.3471 7.99528V8.06154L7.91992 6.51108V6.44482Z" fill="#9671F7"/>
        <path d="M7.91992 6.37842L11.3471 7.93329V7.99514L7.91992 6.44468V6.37842Z" fill="#9772F7"/>
        <path d="M7.91992 6.31689L11.3471 7.86735V7.93361L7.91992 6.37874V6.31689Z" fill="#9873F7"/>
        <path d="M7.91992 6.25049L11.3471 7.80095V7.86721L7.91992 6.31675V6.25049Z" fill="#9874F7"/>
        <path d="M7.91992 6.18408L11.3471 7.73454V7.8008L7.91992 6.25034V6.18408Z" fill="#9975F7"/>
        <path d="M7.91992 6.11768L11.3471 7.67255V7.73439L7.91992 6.18393V6.11768Z" fill="#9976F7"/>
        <path d="M7.91992 6.05615L11.3471 7.60661V7.67287L7.91992 6.11799V6.05615Z" fill="#9A77F7"/>
        <path d="M7.91992 5.98975L11.3471 7.5402V7.60646L7.91992 6.056V5.98975Z" fill="#9A78F6"/>
        <path d="M7.91992 5.92334L11.3471 7.4738V7.54006L7.91992 5.9896V5.92334Z" fill="#9B79F6"/>
        <path d="M7.91992 5.85742L11.3471 7.4123V7.47414L7.91992 5.92368V5.85742Z" fill="#9B7AF6"/>
        <path d="M7.91992 5.79541L11.3471 7.34587V7.41213L7.91992 5.85725V5.79541Z" fill="#9C7BF6"/>
        <path d="M7.91992 5.729L11.3471 7.27946V7.34572L7.91992 5.79526V5.729Z" fill="#9C7CF6"/>
        <path d="M7.91992 5.66309L11.3471 7.21354V7.2798L7.91992 5.72935V5.66309Z" fill="#9D7DF6"/>
        <path d="M7.91992 5.59668L11.3471 7.15156V7.2134L7.91992 5.66294V5.59668Z" fill="#9D7EF6"/>
        <path d="M7.91992 5.53467L11.3471 7.08513V7.15139L7.91992 5.59651V5.53467Z" fill="#9E7FF6"/>
        <path d="M7.91992 5.46875L11.3471 7.01921V7.08547L7.91992 5.53501V5.46875Z" fill="#9F80F5"/>
        <path d="M7.91992 5.40234L11.3471 6.9528V7.01906L7.91992 5.4686V5.40234Z" fill="#9F81F5"/>
        <path d="M7.91992 5.33594L11.3471 6.89081V6.95266L7.91992 5.4022V5.33594Z" fill="#A082F5"/>
        <path d="M7.91992 5.27441L11.3471 6.82487V6.89113L7.91992 5.33626V5.27441Z" fill="#A083F5"/>
        <path d="M7.91992 5.20801L11.3471 6.75847V6.82473L7.91992 5.27427V5.20801Z" fill="#A184F5"/>
        <path d="M7.91992 5.1416L11.3471 6.69206V6.75832L7.91992 5.20786V5.1416Z" fill="#A185F5"/>
        <path d="M7.91992 5.0752L11.3471 6.63007V6.69191L7.91992 5.14145V5.0752Z" fill="#A286F5"/>
        <path d="M7.91992 5.01367L11.3471 6.56413V6.63039L7.91992 5.07551V5.01367Z" fill="#A287F5"/>
        <path d="M7.91992 4.94727L11.3471 6.49772V6.56398L7.91992 5.01352V4.94727Z" fill="#A388F4"/>
        <path d="M7.91992 4.88086L11.3471 6.43132V6.49758L7.91992 4.94712V4.88086Z" fill="#A389F4"/>
        <path d="M7.91992 4.81494L11.3471 6.36982V6.43166L7.91992 4.8812V4.81494Z" fill="#A48AF4"/>
        <path d="M7.91992 4.75293L11.3471 6.30339V6.36965L7.91992 4.81477V4.75293Z" fill="#A48BF4"/>
        <path d="M7.91992 4.68652L11.3471 6.23698V6.30324L7.91992 4.75278V4.68652Z" fill="#A58CF4"/>
        <path d="M11.3471 6.23717L7.91992 4.68671V0H11.3471V6.23717Z" fill="#A58CF4"/>
    </g>
    <mask id="mask3_0_1" style="mask-type:luminance" maskUnits="userSpaceOnUse" x="12" y="1" width="5" height="12">
        <path d="M14.7108 1.23242H14.3947C13.5344 1.23242 12.8369 1.91473 12.8369 2.75638V11.0387C12.8369 11.8804 13.5344 12.5627 14.3947 12.5627H14.7108C15.5711 12.5627 16.2686 11.8804 16.2686 11.0387V2.75638C16.2686 1.91473 15.5711 1.23242 14.7108 1.23242Z" fill="white"/>
    </mask>
    <g mask="url(#mask3_0_1)">
        <path d="M12.8369 10.7075L16.2641 12.258V12.5672H12.8369V10.7075Z" fill="#7532FF"/>
        <path d="M12.8369 10.6499L16.2641 12.2004V12.2578L12.8369 10.7073V10.6499Z" fill="#7532FF"/>
        <path d="M12.8369 10.5884L16.2641 12.1433V12.2007L12.8369 10.6502V10.5884Z" fill="#7633FF"/>
        <path d="M12.8369 10.5308L16.2641 12.0812V12.1431L12.8369 10.5882V10.5308Z" fill="#7634FF"/>
        <path d="M12.8369 10.4688L16.2641 12.0236V12.0811L12.8369 10.5306V10.4688Z" fill="#7735FF"/>
        <path d="M12.8369 10.4116L16.2641 11.9621V12.0239L12.8369 10.469V10.4116Z" fill="#7736FF"/>
        <path d="M12.8369 10.354L16.2641 11.9045V11.9619L12.8369 10.4114V10.354Z" fill="#7837FE"/>
        <path d="M12.8369 10.292L16.2641 11.8469V11.9043L12.8369 10.3538V10.292Z" fill="#7838FE"/>
        <path d="M12.8369 10.2349L16.2641 11.7853V11.8472L12.8369 10.2923V10.2349Z" fill="#7939FE"/>
        <path d="M12.8369 10.1729L16.2641 11.7277V11.7852L12.8369 10.2347V10.1729Z" fill="#793AFE"/>
        <path d="M12.8369 10.1157L16.2641 11.6662V11.728L12.8369 10.1731V10.1157Z" fill="#7A3BFE"/>
        <path d="M12.8369 10.0581L16.2641 11.6086V11.666L12.8369 10.1155V10.0581Z" fill="#7A3CFE"/>
        <path d="M12.8369 9.99609L16.2641 11.5466V11.6084L12.8369 10.0579V9.99609Z" fill="#7B3DFE"/>
        <path d="M12.8369 9.93896L16.2641 11.4894V11.5468L12.8369 9.99639V9.93896Z" fill="#7B3EFE"/>
        <path d="M12.8369 9.87695L16.2641 11.4318V11.4893L12.8369 9.93879V9.87695Z" fill="#7C3FFD"/>
        <path d="M12.8369 9.81934L16.2641 11.3698V11.4316L12.8369 9.87676V9.81934Z" fill="#7D40FD"/>
        <path d="M12.8369 9.76221L16.2641 11.3127V11.3701L12.8369 9.81963V9.76221Z" fill="#7D41FD"/>
        <path d="M12.8369 9.7002L16.2641 11.2551V11.3125L12.8369 9.76204V9.7002Z" fill="#7E42FD"/>
        <path d="M12.8369 9.64307L16.2641 11.1935V11.2554L12.8369 9.70049V9.64307Z" fill="#7E43FD"/>
        <path d="M12.8369 9.58105L16.2641 11.1359V11.1934L12.8369 9.6429V9.58105Z" fill="#7F44FD"/>
        <path d="M12.8369 9.52344L16.2641 11.0739V11.1357L12.8369 9.58086V9.52344Z" fill="#7F45FD"/>
        <path d="M12.8369 9.46631L16.2641 11.0168V11.0742L12.8369 9.52373V9.46631Z" fill="#8046FD"/>
        <path d="M12.8369 9.4043L16.2641 10.9548V11.0166L12.8369 9.46614V9.4043Z" fill="#8047FC"/>
        <path d="M12.8369 9.34668L16.2641 10.8971V10.9546L12.8369 9.4041V9.34668Z" fill="#8148FC"/>
        <path d="M12.8369 9.28516L16.2641 10.84V10.8975L12.8369 9.347V9.28516Z" fill="#8149FC"/>
        <path d="M12.8369 9.22754L16.2641 10.778V10.8398L12.8369 9.28496V9.22754Z" fill="#824AFC"/>
        <path d="M12.8369 9.16602L16.2641 10.7209V10.7783L12.8369 9.22786V9.16602Z" fill="#824BFC"/>
        <path d="M12.8369 9.1084L16.2641 10.6589V10.7207L12.8369 9.16582V9.1084Z" fill="#834CFC"/>
        <path d="M12.8369 9.05078L16.2641 10.6012V10.6587L12.8369 9.10821V9.05078Z" fill="#844DFC"/>
        <path d="M12.8369 8.98926L16.2641 10.5441V10.6016L12.8369 9.0511V8.98926Z" fill="#844EFC"/>
        <path d="M12.8369 8.93164L16.2641 10.4821V10.5439L12.8369 8.98907V8.93164Z" fill="#854FFB"/>
        <path d="M12.8369 8.87451L16.2641 10.425V10.4824L12.8369 8.93194V8.87451Z" fill="#8550FB"/>
        <path d="M12.8369 8.8125L16.2641 10.363V10.4248L12.8369 8.87434V8.8125Z" fill="#8651FB"/>
        <path d="M12.8369 8.75488L16.2641 10.3053V10.3628L12.8369 8.81231V8.75488Z" fill="#8652FB"/>
        <path d="M12.8369 8.69336L16.2641 10.2482V10.3057L12.8369 8.7552V8.69336Z" fill="#8753FB"/>
        <path d="M12.8369 8.63574L16.2641 10.1862V10.248L12.8369 8.69317V8.63574Z" fill="#8754FB"/>
        <path d="M12.8369 8.57373L16.2641 10.1286V10.186L12.8369 8.63557V8.57373Z" fill="#8855FB"/>
        <path d="M12.8369 8.5166L16.2641 10.0671V10.1289L12.8369 8.57403V8.5166Z" fill="#8856FB"/>
        <path d="M12.8369 8.45898L16.2641 10.0094V10.0669L12.8369 8.51641V8.45898Z" fill="#8957FA"/>
        <path d="M12.8369 8.39697L16.2641 9.95185V10.0093L12.8369 8.45881V8.39697Z" fill="#8958FA"/>
        <path d="M12.8369 8.33984L16.2641 9.8903V9.95214L12.8369 8.39727V8.33984Z" fill="#8A59FA"/>
        <path d="M12.8369 8.28223L16.2641 9.83269V9.89011L12.8369 8.33965V8.28223Z" fill="#8B5AFA"/>
        <path d="M12.8369 8.2207L16.2641 9.77116V9.833L12.8369 8.28254V8.2207Z" fill="#8B5BFA"/>
        <path d="M12.8369 8.16309L16.2641 9.71354V9.77097L12.8369 8.22051V8.16309Z" fill="#8C5CFA"/>
        <path d="M12.8369 8.10107L16.2641 9.65595V9.71337L12.8369 8.16292V8.10107Z" fill="#8C5DFA"/>
        <path d="M12.8369 8.04395L16.2641 9.5944V9.65625L12.8369 8.10137V8.04395Z" fill="#8D5EFA"/>
        <path d="M12.8369 7.98193L16.2641 9.53681V9.59423L12.8369 8.04377V7.98193Z" fill="#8D60F9"/>
        <path d="M12.8369 7.9248L16.2641 9.47526V9.5371L12.8369 7.98223V7.9248Z" fill="#8E61F9"/>
        <path d="M12.8369 7.86719L16.2641 9.41765V9.47507L12.8369 7.92461V7.86719Z" fill="#8E62F9"/>
        <path d="M12.8369 7.80518L16.2641 9.35563V9.41748L12.8369 7.86702V7.80518Z" fill="#8F63F9"/>
        <path d="M12.8369 7.74805L16.2641 9.2985V9.35593L12.8369 7.80547V7.74805Z" fill="#8F64F9"/>
        <path d="M12.8369 7.68604L16.2641 9.24091V9.29834L12.8369 7.74788V7.68604Z" fill="#9065F9"/>
        <path d="M12.8369 7.62842L16.2641 9.17888V9.24072L12.8369 7.68584V7.62842Z" fill="#9166F9"/>
        <path d="M12.8369 7.57129L16.2641 9.12175V9.17917L12.8369 7.62871V7.57129Z" fill="#9167F9"/>
        <path d="M12.8369 7.50928L16.2641 9.06415V9.12158L12.8369 7.57112V7.50928Z" fill="#9268F8"/>
        <path d="M12.8369 7.45215L16.2641 9.00261V9.06445L12.8369 7.50957V7.45215Z" fill="#9269F8"/>
        <path d="M12.8369 7.39014L16.2641 8.94501V9.00244L12.8369 7.45198V7.39014Z" fill="#936AF8"/>
        <path d="M12.8369 7.33252L16.2641 8.88298V8.94482L12.8369 7.38994V7.33252Z" fill="#936BF8"/>
        <path d="M12.8369 7.271L16.2641 8.82587V8.8833L12.8369 7.33284V7.271Z" fill="#946CF8"/>
        <path d="M12.8369 7.21338L16.2641 8.76384V8.82568L12.8369 7.2708V7.21338Z" fill="#946DF8"/>
        <path d="M12.8369 7.15576L16.2641 8.70622V8.76364L12.8369 7.21319V7.15576Z" fill="#956EF8"/>
        <path d="M12.8369 7.09424L16.2641 8.64911V8.70654L12.8369 7.15608V7.09424Z" fill="#956FF8"/>
        <path d="M12.8369 7.03662L16.2641 8.58708V8.64892L12.8369 7.09405V7.03662Z" fill="#9670F7"/>
        <path d="M12.8369 6.97461L16.2641 8.52949V8.58691L12.8369 7.03645V6.97461Z" fill="#9671F7"/>
        <path d="M12.8369 6.91748L16.2641 8.46794V8.52978L12.8369 6.9749V6.91748Z" fill="#9772F7"/>
        <path d="M12.8369 6.85986L16.2641 8.41032V8.46775L12.8369 6.91729V6.85986Z" fill="#9873F7"/>
        <path d="M12.8369 6.79834L16.2641 8.35322V8.41064L12.8369 6.86018V6.79834Z" fill="#9874F7"/>
        <path d="M12.8369 6.74072L16.2641 8.29118V8.35302L12.8369 6.79815V6.74072Z" fill="#9975F7"/>
        <path d="M12.8369 6.68311L16.2641 8.23356V8.29099L12.8369 6.74053V6.68311Z" fill="#9976F7"/>
        <path d="M12.8369 6.62158L16.2641 8.17204V8.23388L12.8369 6.68342V6.62158Z" fill="#9A77F7"/>
        <path d="M12.8369 6.56396L16.2641 8.11442V8.17185L12.8369 6.62139V6.56396Z" fill="#9A78F6"/>
        <path d="M12.8369 6.50244L16.2641 8.05732V8.11474L12.8369 6.56428V6.50244Z" fill="#9B79F6"/>
        <path d="M12.8369 6.44482L16.2641 7.99528V8.05712L12.8369 6.50225V6.44482Z" fill="#9B7AF6"/>
        <path d="M12.8369 6.38721L16.2641 7.93767V7.99509L12.8369 6.44463V6.38721Z" fill="#9C7BF6"/>
        <path d="M12.8369 6.32568L16.2641 7.87614V7.93798L12.8369 6.38753V6.32568Z" fill="#9C7CF6"/>
        <path d="M12.8369 6.26807L16.2641 7.81853V7.87595L12.8369 6.32549V6.26807Z" fill="#9D7DF6"/>
        <path d="M12.8369 6.20605L16.2641 7.76093V7.81836L12.8369 6.2679V6.20605Z" fill="#9D7EF6"/>
        <path d="M12.8369 6.14893L16.2641 7.69938V7.76123L12.8369 6.20635V6.14893Z" fill="#9E7FF6"/>
        <path d="M12.8369 6.08691L16.2641 7.64179V7.69921L12.8369 6.14876V6.08691Z" fill="#9F80F5"/>
        <path d="M12.8369 6.02979L16.2641 7.58024V7.64209L12.8369 6.08721V6.02979Z" fill="#9F81F5"/>
        <path d="M12.8369 5.97217L16.2641 7.52263V7.58005L12.8369 6.02959V5.97217Z" fill="#A082F5"/>
        <path d="M12.8369 5.91016L16.2641 7.46061V7.52246L12.8369 5.972V5.91016Z" fill="#A083F5"/>
        <path d="M12.8369 5.85303L16.2641 7.40349V7.46091L12.8369 5.91045V5.85303Z" fill="#A184F5"/>
        <path d="M12.8369 5.79102L16.2641 7.34589V7.40332L12.8369 5.85286V5.79102Z" fill="#A185F5"/>
        <path d="M12.8369 5.7334L16.2641 7.28386V7.3457L12.8369 5.79082V5.7334Z" fill="#A286F5"/>
        <path d="M12.8369 5.67627L16.2641 7.22673V7.28415L12.8369 5.73369V5.67627Z" fill="#A287F5"/>
        <path d="M12.8369 5.61426L16.2641 7.16913V7.22656L12.8369 5.6761V5.61426Z" fill="#A388F4"/>
        <path d="M12.8369 5.55713L16.2641 7.10759V7.16943L12.8369 5.61455V5.55713Z" fill="#A389F4"/>
        <path d="M12.8369 5.49512L16.2641 7.04999V7.10742L12.8369 5.55696V5.49512Z" fill="#A48AF4"/>
        <path d="M12.8369 5.4375L16.2641 6.98796V7.0498L12.8369 5.49492V5.4375Z" fill="#A48BF4"/>
        <path d="M12.8369 5.38037L16.2641 6.93083V6.98825L12.8369 5.4378V5.38037Z" fill="#A58CF4"/>
        <path d="M16.2641 6.93069L12.8369 5.38023V1.23242H16.2641V6.93069Z" fill="#A58CF4"/>
    </g>
    <mask id="mask4_0_1" style="mask-type:luminance" maskUnits="userSpaceOnUse" x="17" y="3" width="4" height="10">
        <path d="M19.4753 3.86084H18.7709C18.0178 3.86084 17.4072 4.45808 17.4072 5.19483V11.2332C17.4072 11.97 18.0178 12.5672 18.7709 12.5672H19.4753C20.2284 12.5672 20.8389 11.97 20.8389 11.2332V5.19483C20.8389 4.45808 20.2284 3.86084 19.4753 3.86084Z" fill="white"/>
    </mask>
    <g mask="url(#mask4_0_1)">
        <path d="M17.4072 11.0522L20.7531 12.5674H17.4072V11.0522Z" fill="#7532FF"/>
        <path d="M17.4072 11.0034L20.8389 12.5583V12.5671H20.7531L17.4072 11.052V11.0034Z" fill="#7532FF"/>
        <path d="M17.4072 10.9595L20.8389 12.5099V12.5585L17.4072 11.0036V10.9595Z" fill="#7633FF"/>
        <path d="M17.4072 10.9106L20.8389 12.4655V12.5097L17.4072 10.9592V10.9106Z" fill="#7634FF"/>
        <path d="M17.4072 10.8667L20.8389 12.4172V12.4657L17.4072 10.9109V10.8667Z" fill="#7735FF"/>
        <path d="M17.4072 10.8179L20.8389 12.3683V12.4169L17.4072 10.8665V10.8179Z" fill="#7736FF"/>
        <path d="M17.4072 10.7739L20.8389 12.3244V12.3686L17.4072 10.8181V10.7739Z" fill="#7837FE"/>
        <path d="M17.4072 10.7251L20.8389 12.2756V12.3241L17.4072 10.7737V10.7251Z" fill="#7838FE"/>
        <path d="M17.4072 10.6812L20.8389 12.2316V12.2758L17.4072 10.7253V10.6812Z" fill="#7939FE"/>
        <path d="M17.4072 10.6323L20.8389 12.1828V12.2314L17.4072 10.6809V10.6323Z" fill="#793AFE"/>
        <path d="M17.4072 10.584L20.8389 12.1389V12.183L17.4072 10.6326V10.584Z" fill="#7A3BFE"/>
        <path d="M17.4072 10.5396L20.8389 12.09V12.1386L17.4072 10.5837V10.5396Z" fill="#7A3CFE"/>
        <path d="M17.4072 10.4912L20.8389 12.0461V12.0903L17.4072 10.5398V10.4912Z" fill="#7B3DFE"/>
        <path d="M17.4072 10.4468L20.8389 11.9972V12.0458L17.4072 10.491V10.4468Z" fill="#7B3EFE"/>
        <path d="M17.4072 10.3984L20.8389 11.9489V11.9975L17.4072 10.447V10.3984Z" fill="#7C3FFD"/>
        <path d="M17.4072 10.3496L20.8389 11.9045V11.9487L17.4072 10.3982V10.3496Z" fill="#7D40FD"/>
        <path d="M17.4072 10.3057L20.8389 11.8561V11.9047L17.4072 10.3498V10.3057Z" fill="#7D41FD"/>
        <path d="M17.4072 10.2568L20.8389 11.8117V11.8559L17.4072 10.3054V10.2568Z" fill="#7E42FD"/>
        <path d="M17.4072 10.2129L20.8389 11.7633V11.8119L17.4072 10.2571V10.2129Z" fill="#7E43FD"/>
        <path d="M17.4072 10.1641L20.8389 11.7145V11.7631L17.4072 10.2127V10.1641Z" fill="#7F44FD"/>
        <path d="M17.4072 10.1201L20.8389 11.6706V11.7147L17.4072 10.1643V10.1201Z" fill="#7F45FD"/>
        <path d="M17.4072 10.0713L20.8389 11.6217V11.6703L17.4072 10.1199V10.0713Z" fill="#8046FD"/>
        <path d="M17.4072 10.0273L20.8389 11.5778V11.622L17.4072 10.0715V10.0273Z" fill="#8047FC"/>
        <path d="M17.4072 9.97852L20.8389 11.529V11.5776L17.4072 10.0271V9.97852Z" fill="#8148FC"/>
        <path d="M17.4072 9.93018L20.8389 11.4851V11.5292L17.4072 9.97877V9.93018Z" fill="#8149FC"/>
        <path d="M17.4072 9.88574L20.8389 11.4362V11.4848L17.4072 9.92991V9.88574Z" fill="#824AFC"/>
        <path d="M17.4072 9.8374L20.8389 11.3923V11.4365L17.4072 9.88599V9.8374Z" fill="#824BFC"/>
        <path d="M17.4072 9.79346L20.8389 11.3439V11.3925L17.4072 9.83763V9.79346Z" fill="#834CFC"/>
        <path d="M17.4072 9.74463L20.8389 11.2951V11.3437L17.4072 9.79322V9.74463Z" fill="#844DFC"/>
        <path d="M17.4072 9.6958L20.8389 11.2507V11.2948L17.4072 9.74439V9.6958Z" fill="#844EFC"/>
        <path d="M17.4072 9.65186L20.8389 11.2023V11.2509L17.4072 9.69603V9.65186Z" fill="#854FFB"/>
        <path d="M17.4072 9.60352L20.8389 11.1584V11.2026L17.4072 9.65211V9.60352Z" fill="#8550FB"/>
        <path d="M17.4072 9.55908L20.8389 11.1095V11.1581L17.4072 9.60325V9.55908Z" fill="#8651FB"/>
        <path d="M17.4072 9.51074L20.8389 11.0656V11.1098L17.4072 9.55933V9.51074Z" fill="#8652FB"/>
        <path d="M17.4072 9.46631L20.8389 11.0168V11.0654L17.4072 9.51048V9.46631Z" fill="#8753FB"/>
        <path d="M17.4072 9.41797L20.8389 10.9684V11.017L17.4072 9.46656V9.41797Z" fill="#8754FB"/>
        <path d="M17.4072 9.36914L20.8389 10.924V10.9682L17.4072 9.41773V9.36914Z" fill="#8855FB"/>
        <path d="M17.4072 9.3252L20.8389 10.8757V10.9242L17.4072 9.36937V9.3252Z" fill="#8856FB"/>
        <path d="M17.4072 9.27637L20.8389 10.8312V10.8754L17.4072 9.32496V9.27637Z" fill="#8957FA"/>
        <path d="M17.4072 9.23242L20.8389 10.7829V10.8315L17.4072 9.27659V9.23242Z" fill="#8958FA"/>
        <path d="M17.4072 9.18359L20.8389 10.7341V10.7826L17.4072 9.23218V9.18359Z" fill="#8A59FA"/>
        <path d="M17.4072 9.13965L20.8389 10.6901V10.7343L17.4072 9.18382V9.13965Z" fill="#8B5AFA"/>
        <path d="M17.4072 9.09082L20.8389 10.6413V10.6899L17.4072 9.13941V9.09082Z" fill="#8B5BFA"/>
        <path d="M17.4072 9.04688L20.8389 10.5973V10.6415L17.4072 9.09105V9.04688Z" fill="#8C5CFA"/>
        <path d="M17.4072 8.99805L20.8389 10.5485V10.5971L17.4072 9.04664V8.99805Z" fill="#8C5DFA"/>
        <path d="M17.4072 8.94971L20.8389 10.5046V10.5488L17.4072 8.9983V8.94971Z" fill="#8D5EFA"/>
        <path d="M17.4072 8.90527L20.8389 10.4557V10.5043L17.4072 8.94945V8.90527Z" fill="#8D60F9"/>
        <path d="M17.4072 8.85693L20.8389 10.4118V10.456L17.4072 8.90552V8.85693Z" fill="#8E61F9"/>
        <path d="M17.4072 8.8125L20.8389 10.363V10.4115L17.4072 8.85667V8.8125Z" fill="#8E62F9"/>
        <path d="M17.4072 8.76416L20.8389 10.3146V10.3632L17.4072 8.81275V8.76416Z" fill="#8F63F9"/>
        <path d="M17.4072 8.71533L20.8389 10.2702V10.3144L17.4072 8.76392V8.71533Z" fill="#8F64F9"/>
        <path d="M17.4072 8.67139L20.8389 10.2218V10.2704L17.4072 8.71556V8.67139Z" fill="#9065F9"/>
        <path d="M17.4072 8.62256L20.8389 10.1774V10.2216L17.4072 8.67115V8.62256Z" fill="#9166F9"/>
        <path d="M17.4072 8.57861L20.8389 10.1291V10.1777L17.4072 8.62279V8.57861Z" fill="#9167F9"/>
        <path d="M17.4072 8.52979L20.8389 10.0802V10.1288L17.4072 8.57838V8.52979Z" fill="#9268F8"/>
        <path d="M17.4072 8.48584L20.8389 10.0363V10.0805L17.4072 8.53001V8.48584Z" fill="#9269F8"/>
        <path d="M17.4072 8.43701L20.8389 9.98747V10.0361L17.4072 8.4856V8.43701Z" fill="#936AF8"/>
        <path d="M17.4072 8.39307L20.8389 9.94353V9.9877L17.4072 8.43724V8.39307Z" fill="#936BF8"/>
        <path d="M17.4072 8.34424L20.8389 9.8947V9.94329L17.4072 8.39283V8.34424Z" fill="#946CF8"/>
        <path d="M17.4072 8.2959L20.8389 9.85077V9.89495L17.4072 8.34449V8.2959Z" fill="#946DF8"/>
        <path d="M17.4072 8.25146L20.8389 9.80192V9.85051L17.4072 8.29564V8.25146Z" fill="#956EF8"/>
        <path d="M17.4072 8.20312L20.8389 9.758V9.80217L17.4072 8.25172V8.20312Z" fill="#956FF8"/>
        <path d="M17.4072 8.15869L20.8389 9.70915V9.75774L17.4072 8.20286V8.15869Z" fill="#9670F7"/>
        <path d="M17.4072 8.11035L20.8389 9.66081V9.7094L17.4072 8.15894V8.11035Z" fill="#9671F7"/>
        <path d="M17.4072 8.06152L20.8389 9.6164V9.66057L17.4072 8.11011V8.06152Z" fill="#9772F7"/>
        <path d="M17.4072 8.01758L20.8389 9.56804V9.61663L17.4072 8.06175V8.01758Z" fill="#9873F7"/>
        <path d="M17.4072 7.96875L20.8389 9.52363V9.5678L17.4072 8.01734V7.96875Z" fill="#9874F7"/>
        <path d="M17.4072 7.9248L20.8389 9.47526V9.52385L17.4072 7.96898V7.9248Z" fill="#9975F7"/>
        <path d="M17.4072 7.87598L20.8389 9.42644V9.47503L17.4072 7.92457V7.87598Z" fill="#9976F7"/>
        <path d="M17.4072 7.83203L20.8389 9.38249V9.42666L17.4072 7.8762V7.83203Z" fill="#9A77F7"/>
        <path d="M17.4072 7.7832L20.8389 9.33366V9.38225L17.4072 7.83179V7.7832Z" fill="#9A78F6"/>
        <path d="M17.4072 7.73926L20.8389 9.28972V9.33389L17.4072 7.78343V7.73926Z" fill="#9B79F6"/>
        <path d="M17.4072 7.69043L20.8389 9.24089V9.28948L17.4072 7.73902V7.69043Z" fill="#9B7AF6"/>
        <path d="M17.4072 7.64209L20.8389 9.19697V9.24114L17.4072 7.69068V7.64209Z" fill="#9C7BF6"/>
        <path d="M17.4072 7.59766L20.8389 9.14811V9.1967L17.4072 7.64183V7.59766Z" fill="#9C7CF6"/>
        <path d="M17.4072 7.54932L20.8389 9.10419V9.14836L17.4072 7.59791V7.54932Z" fill="#9D7DF6"/>
        <path d="M17.4072 7.50488L20.8389 9.05534V9.10393L17.4072 7.54906V7.50488Z" fill="#9D7EF6"/>
        <path d="M17.4072 7.45654L20.8389 9.007V9.05559L17.4072 7.50513V7.45654Z" fill="#9E7FF6"/>
        <path d="M17.4072 7.40771L20.8389 8.96259V9.00676L17.4072 7.4563V7.40771Z" fill="#9F80F5"/>
        <path d="M17.4072 7.36377L20.8389 8.91423V8.96282L17.4072 7.40794V7.36377Z" fill="#9F81F5"/>
        <path d="M17.4072 7.31494L20.8389 8.86982V8.91399L17.4072 7.36353V7.31494Z" fill="#A082F5"/>
        <path d="M17.4072 7.271L20.8389 8.82145V8.87005L17.4072 7.31517V7.271Z" fill="#A083F5"/>
        <path d="M17.4072 7.22217L20.8389 8.77263V8.82122L17.4072 7.27076V7.22217Z" fill="#A184F5"/>
        <path d="M17.4072 7.17822L20.8389 8.72868V8.77285L17.4072 7.2224V7.17822Z" fill="#A185F5"/>
        <path d="M17.4072 7.12939L20.8389 8.67985V8.72844L17.4072 7.17798V7.12939Z" fill="#A286F5"/>
        <path d="M17.4072 7.08545L20.8389 8.63591V8.68008L17.4072 7.12962V7.08545Z" fill="#A287F5"/>
        <path d="M17.4072 7.03662L20.8389 8.58708V8.63567L17.4072 7.08521V7.03662Z" fill="#A388F4"/>
        <path d="M17.4072 6.98828L20.8389 8.54316V8.58733L17.4072 7.03687V6.98828Z" fill="#A389F4"/>
        <path d="M17.4072 6.94385L20.8389 8.49431V8.5429L17.4072 6.98802V6.94385Z" fill="#A48AF4"/>
        <path d="M17.4072 6.89551L20.8389 8.45038V8.49456L17.4072 6.9441V6.89551Z" fill="#A48BF4"/>
        <path d="M17.4072 6.85156L20.8389 8.40202V8.45061L17.4072 6.89573V6.85156Z" fill="#A58CF4"/>
        <path d="M20.8389 8.40178L17.4072 6.85133V3.86084H20.8389V8.40178Z" fill="#A58CF4"/>
    </g>
    <path d="M7.29665 21.2337C8.00738 21.2337 8.58353 20.67 8.58353 19.9747C8.58353 19.2795 8.00738 18.7158 7.29665 18.7158C6.58592 18.7158 6.00977 19.2795 6.00977 19.9747C6.00977 20.67 6.58592 21.2337 7.29665 21.2337Z" fill="#19004D"/>
    <path d="M11.9343 21.2337C12.6451 21.2337 13.2212 20.67 13.2212 19.9747C13.2212 19.2795 12.6451 18.7158 11.9343 18.7158C11.2236 18.7158 10.6475 19.2795 10.6475 19.9747C10.6475 20.67 11.2236 21.2337 11.9343 21.2337Z" fill="#19004D"/>
    <path d="M16.6619 21.2337C17.3726 21.2337 17.9488 20.67 17.9488 19.9747C17.9488 19.2795 17.3726 18.7158 16.6619 18.7158C15.9512 18.7158 15.375 19.2795 15.375 19.9747C15.375 20.67 15.9512 21.2337 16.6619 21.2337Z" fill="#19004D"/>
</svg>
