<svg width="51" height="53" viewBox="0 0 51 53" fill="none" xmlns="http://www.w3.org/2000/svg">
    <rect y="0.838867" width="50.4596" height="51.5332" rx="13" fill="#EFE0B4"/>
    <path d="M32.0223 23.5912C32.0223 23.698 31.9102 23.8848 31.686 24.1517C31.4618 24.4186 31.2215 24.7336 30.9653 25.0966C30.7091 25.4596 30.4689 25.8546 30.2446 26.2817C30.0204 26.7088 29.9083 27.1465 29.9083 27.5949C29.9083 28.0433 30.0204 28.4757 30.2446 28.8921C30.4689 29.3085 30.7091 29.6875 30.9653 30.0291C31.2215 30.3708 31.4618 30.6537 31.686 30.8779C31.9102 31.1021 32.0223 31.2463 32.0223 31.3103V34.6734C32.0223 35.0364 31.8888 35.4474 31.6219 35.9065C31.355 36.3656 31.024 36.798 30.629 37.2037C30.234 37.6094 29.7962 37.9457 29.3158 38.2127C28.8353 38.4796 28.3816 38.613 27.9545 38.613H12.0359C11.4594 38.613 10.9309 38.5116 10.4504 38.3087C9.97001 38.1059 9.54829 37.823 9.18529 37.46C8.82229 37.097 8.53936 36.6699 8.33651 36.1788C8.13365 35.6877 8.03223 35.1538 8.03223 34.5773V20.7726C8.03223 20.3456 8.12831 19.9025 8.32049 19.4434C8.51267 18.9843 8.78492 18.5626 9.13724 18.1782C9.48957 17.7939 9.90595 17.4736 10.3864 17.2174C10.8668 16.9611 11.3953 16.833 11.9718 16.833H27.8905C28.467 16.833 29.0062 16.9344 29.508 17.1373C30.0098 17.3401 30.4475 17.6177 30.8212 17.9701C31.1949 18.3224 31.4885 18.7441 31.702 19.2352C31.9155 19.7263 32.0223 20.2495 32.0223 20.8047V23.5912ZM41.9834 20.5805V35.2179C41.9834 35.6877 41.8607 36.1041 41.6151 36.4671C41.3695 36.8301 41.0012 37.0116 40.5101 37.0116C40.3393 37.0116 40.1204 36.9475 39.8535 36.8194C39.5866 36.6913 39.3197 36.5418 39.0527 36.371C38.7858 36.2001 38.5349 36.0293 38.3 35.8585C38.0652 35.6877 37.8943 35.5489 37.7876 35.4421C37.51 35.2072 37.0883 34.8015 36.5224 34.225C35.9566 33.6485 35.3854 32.9972 34.8088 32.2712C34.2323 31.5452 33.7252 30.7978 33.2874 30.0291C32.8497 29.2604 32.6308 28.5558 32.6308 27.9152C32.6308 27.2746 32.8657 26.5433 33.3355 25.7212C33.8053 24.8991 34.3711 24.093 35.033 23.303C35.695 22.5129 36.389 21.7816 37.115 21.1089C37.841 20.4363 38.4495 19.9292 38.9406 19.5875C39.1328 19.4594 39.3944 19.3046 39.7254 19.1231C40.0563 18.9416 40.3499 18.8509 40.6062 18.8509C41.1827 18.8509 41.5564 19.011 41.7272 19.3313C41.898 19.6516 41.9834 20.0466 41.9834 20.5164V20.5805Z" fill="white"/>
</svg>
