<svg width="58" height="44" viewBox="0 0 58 44" fill="none" xmlns="http://www.w3.org/2000/svg">
    <path d="M50.7122 3.58333H6.33366C6.09283 3.58333 5.85766 3.61308 5.63241 3.67117L27.1275 25.1648C27.3932 25.4304 27.7534 25.5796 28.1291 25.5796C28.5047 25.5796 28.865 25.4304 29.1307 25.1648L50.7122 3.58333ZM53.7764 4.52542L36.4647 21.8371L53.9252 39.2961C54.2864 38.8201 54.5003 38.2265 54.5003 37.5833V6.41667C54.5003 5.68992 54.2269 5.02833 53.7778 4.52542H53.7764ZM51.038 40.4167L34.463 23.8402L31.1338 27.1694C30.7392 27.5641 30.2706 27.8773 29.7549 28.0909C29.2393 28.3045 28.6865 28.4145 28.1284 28.4145C27.5702 28.4145 27.0175 28.3045 26.5018 28.0909C25.9861 27.8773 25.5176 27.5641 25.1229 27.1694L21.7952 23.8402L5.38449 40.2537C5.68199 40.3586 6.00074 40.4167 6.33508 40.4167H51.0394H51.038ZM3.54424 38.0848L19.792 21.8357L3.60516 5.65167C3.5355 5.90069 3.50023 6.15808 3.50033 6.41667V37.5833C3.50033 37.7533 3.51449 37.9219 3.54424 38.0848ZM6.33366 0.75H51.667C52.4111 0.75 53.148 0.896572 53.8355 1.18135C54.523 1.46613 55.1477 1.88353 55.6739 2.40973C56.2001 2.93593 56.6175 3.56062 56.9023 4.24813C57.1871 4.93564 57.3337 5.67251 57.3337 6.41667V37.5833C57.3337 38.3275 57.1871 39.0644 56.9023 39.7519C56.6175 40.4394 56.2001 41.0641 55.6739 41.5903C55.1477 42.1165 54.523 42.5339 53.8355 42.8186C53.148 43.1034 52.4111 43.25 51.667 43.25H6.33366C5.5895 43.25 4.85263 43.1034 4.16512 42.8186C3.47761 42.5339 2.85292 42.1165 2.32672 41.5903C1.80052 41.0641 1.38312 40.4394 1.09834 39.7519C0.813565 39.0644 0.666992 38.3275 0.666992 37.5833V6.41667C0.666992 5.67251 0.813565 4.93564 1.09834 4.24813C1.38312 3.56062 1.80052 2.93593 2.32672 2.40973C2.85292 1.88353 3.47761 1.46613 4.16512 1.18135C4.85263 0.896572 5.5895 0.75 6.33366 0.75Z" fill="white"/>
</svg>
