<svg width="51" height="52" viewBox="0 0 51 52" fill="none" xmlns="http://www.w3.org/2000/svg">
    <rect y="0.0830078" width="50.4596" height="51.5332" rx="13" fill="#EFE0B4"/>
    <g clip-path="url(#clip0_408_3179)">
        <path d="M27.0119 39.9932V44.378H23.8452V40.1135C16.925 39.5815 11.4678 33.8984 11.4678 27.4828C11.4678 27.0628 11.6346 26.6601 11.9315 26.3632C12.2285 26.0662 12.6312 25.8994 13.0511 25.8994C13.471 25.8994 13.8738 26.0662 14.1707 26.3632C14.4676 26.6601 14.6344 27.0628 14.6344 27.4828C14.6344 32.465 19.2282 36.987 24.905 36.987C30.5818 36.987 35.1734 32.4629 35.1734 27.4828C35.1734 27.2748 35.2143 27.0689 35.2939 26.8768C35.3735 26.6846 35.4901 26.5101 35.6371 26.363C35.7841 26.216 35.9587 26.0993 36.1508 26.0197C36.3429 25.9401 36.5488 25.8992 36.7568 25.8992C36.9647 25.8992 37.1706 25.9401 37.3627 26.0197C37.5549 26.0993 37.7294 26.216 37.8764 26.363C38.0235 26.5101 38.1401 26.6846 38.2197 26.8768C38.2992 27.0689 38.3401 27.2748 38.3401 27.4828C38.3401 33.5712 33.4275 39.001 27.0119 39.9932ZM24.962 7.83887C26.6417 7.83887 28.2526 8.50613 29.4403 9.69386C30.6281 10.8816 31.2953 12.4925 31.2953 14.1722V26.8389C31.2953 27.6706 31.1315 28.4941 30.8132 29.2625C30.495 30.0309 30.0284 30.7291 29.4403 31.3172C28.8522 31.9053 28.1541 32.3718 27.3857 32.6901C26.6173 33.0084 25.7937 33.1722 24.962 33.1722C24.1303 33.1722 23.3067 33.0084 22.5383 32.6901C21.7699 32.3718 21.0718 31.9053 20.4837 31.3172C19.8955 30.7291 19.429 30.0309 19.1108 29.2625C18.7925 28.4941 18.6287 27.6706 18.6287 26.8389V14.1722C18.6287 12.4925 19.2959 10.8816 20.4837 9.69386C21.6714 8.50613 23.2823 7.83887 24.962 7.83887Z" fill="white"/>
    </g>
    <defs>
        <clipPath id="clip0_408_3179">
            <rect width="38" height="38" fill="white" transform="translate(6 6.60156)"/>
        </clipPath>
    </defs>
</svg>
