<svg xmlns="http://www.w3.org/2000/svg" xmlns:xlink="http://www.w3.org/1999/xlink" viewBox="0 0 151.49 58.86"><defs><style>.cls-1{fill:none;}.cls-2{clip-path:url(#clip-path);}.cls-3{fill:#7532ff;}.cls-4{fill:#7633ff;}.cls-5{fill:#7634ff;}.cls-6{fill:#7735ff;}.cls-7{fill:#7736ff;}.cls-8{fill:#7837fe;}.cls-9{fill:#7838fe;}.cls-10{fill:#7939fe;}.cls-11{fill:#793afe;}.cls-12{fill:#7a3bfe;}.cls-13{fill:#7a3cfe;}.cls-14{fill:#7b3dfe;}.cls-15{fill:#7b3efe;}.cls-16{fill:#7c3ffd;}.cls-17{fill:#7d40fd;}.cls-18{fill:#7d41fd;}.cls-19{fill:#7e42fd;}.cls-20{fill:#7e43fd;}.cls-21{fill:#7f44fd;}.cls-22{fill:#7f45fd;}.cls-23{fill:#8046fd;}.cls-24{fill:#8047fc;}.cls-25{fill:#8148fc;}.cls-26{fill:#8149fc;}.cls-27{fill:#824afc;}.cls-28{fill:#824bfc;}.cls-29{fill:#834cfc;}.cls-30{fill:#844dfc;}.cls-31{fill:#844efc;}.cls-32{fill:#854ffb;}.cls-33{fill:#8550fb;}.cls-34{fill:#8651fb;}.cls-35{fill:#8652fb;}.cls-36{fill:#8753fb;}.cls-37{fill:#8754fb;}.cls-38{fill:#8855fb;}.cls-39{fill:#8856fb;}.cls-40{fill:#8957fa;}.cls-41{fill:#8958fa;}.cls-42{fill:#8a59fa;}.cls-43{fill:#8b5afa;}.cls-44{fill:#8b5bfa;}.cls-45{fill:#8c5cfa;}.cls-46{fill:#8c5dfa;}.cls-47{fill:#8d5efa;}.cls-48{fill:#8d60f9;}.cls-49{fill:#8e61f9;}.cls-50{fill:#8e62f9;}.cls-51{fill:#8f63f9;}.cls-52{fill:#8f64f9;}.cls-53{fill:#9065f9;}.cls-54{fill:#9166f9;}.cls-55{fill:#9167f9;}.cls-56{fill:#9268f8;}.cls-57{fill:#9269f8;}.cls-58{fill:#936af8;}.cls-59{fill:#936bf8;}.cls-60{fill:#946cf8;}.cls-61{fill:#946df8;}.cls-62{fill:#956ef8;}.cls-63{fill:#956ff8;}.cls-64{fill:#9670f7;}.cls-65{fill:#9671f7;}.cls-66{fill:#9772f7;}.cls-67{fill:#9873f7;}.cls-68{fill:#9874f7;}.cls-69{fill:#9975f7;}.cls-70{fill:#9976f7;}.cls-71{fill:#9a77f7;}.cls-72{fill:#9a78f6;}.cls-73{fill:#9b79f6;}.cls-74{fill:#9b7af6;}.cls-75{fill:#9c7bf6;}.cls-76{fill:#9c7cf6;}.cls-77{fill:#9d7df6;}.cls-78{fill:#9d7ef6;}.cls-79{fill:#9e7ff6;}.cls-80{fill:#9f80f5;}.cls-81{fill:#9f81f5;}.cls-82{fill:#a082f5;}.cls-83{fill:#a083f5;}.cls-84{fill:#a184f5;}.cls-85{fill:#a185f5;}.cls-86{fill:#a286f5;}.cls-87{fill:#a287f5;}.cls-88{fill:#a388f4;}.cls-89{fill:#a389f4;}.cls-90{fill:#a48af4;}.cls-91{fill:#a48bf4;}.cls-92{fill:#a58cf4;}.cls-93{clip-path:url(#clip-path-2);}.cls-94{clip-path:url(#clip-path-3);}.cls-95{clip-path:url(#clip-path-4);}.cls-96{clip-path:url(#clip-path-5);}.cls-97{fill:#19004d;}.cls-98{isolation:isolate;}</style><clipPath id="clip-path" transform="translate(0.04 0)"><path class="cls-1" d="M.44,50.45,7.8,45.06V37.15a4.7,4.7,0,0,1,4.68-4.68H39.17A4.54,4.54,0,0,1,43.72,37V54.31a4.55,4.55,0,0,1-4.55,4.55H13.41A5.61,5.61,0,0,1,7.8,53.25h0v-.11L1,52.4a1.09,1.09,0,0,1-1-1.16A1.11,1.11,0,0,1,.44,50.45Z"/></clipPath><clipPath id="clip-path-2" transform="translate(0.04 0)"><rect class="cls-1" x="6.35" y="1.93" width="7.6" height="26.51" rx="3.51"/></clipPath><clipPath id="clip-path-3" transform="translate(0.04 0)"><rect class="cls-1" x="17.17" width="7.6" height="28.45" rx="3.63"/></clipPath><clipPath id="clip-path-4" transform="translate(0.04 0)"><rect class="cls-1" x="28.07" y="2.79" width="7.6" height="25.65" rx="3.45"/></clipPath><clipPath id="clip-path-5" transform="translate(0.04 0)"><rect class="cls-1" x="38.19" y="8.74" width="7.6" height="19.71" rx="3.02"/></clipPath></defs><g id="图层_2" data-name="图层 2"><g id="图层_1-2" data-name="图层 1"><g id="图层_2-2" data-name="图层 2"><g id="TEXT"><g class="cls-2"><polygon class="cls-3" points="0 57.33 1.95 58.86 0 58.86 0 57.33"/><polygon class="cls-3" points="0 56.87 2.54 58.86 1.95 58.86 0 57.33 0 56.87"/><polygon class="cls-4" points="0 56.41 3.13 58.86 2.54 58.86 0 56.87 0 56.41"/><polygon class="cls-5" points="0 55.95 3.72 58.86 3.13 58.86 0 56.41 0 55.95"/><polygon class="cls-6" points="0 55.49 4.31 58.86 3.72 58.86 0 55.95 0 55.49"/><polygon class="cls-7" points="0 55.03 4.9 58.86 4.31 58.86 0 55.49 0 55.03"/><polygon class="cls-8" points="0 54.57 5.49 58.86 4.9 58.86 0 55.03 0 54.57"/><polygon class="cls-9" points="0 54.11 6.07 58.86 5.49 58.86 0 54.57 0 54.11"/><polygon class="cls-10" points="0 53.65 6.66 58.86 6.07 58.86 0 54.11 0 53.65"/><polygon class="cls-11" points="0 53.19 7.25 58.86 6.66 58.86 0 53.65 0 53.19"/><polygon class="cls-12" points="0 52.73 7.84 58.86 7.25 58.86 0 53.19 0 52.73"/><polygon class="cls-13" points="0 52.27 8.43 58.86 7.84 58.86 0 52.73 0 52.27"/><polygon class="cls-14" points="0 51.81 9.02 58.86 8.43 58.86 0 52.27 0 51.81"/><polygon class="cls-15" points="0 51.35 9.61 58.86 9.02 58.86 0 51.81 0 51.35"/><polygon class="cls-16" points="0 50.89 10.2 58.86 9.61 58.86 0 51.35 0 50.89"/><polygon class="cls-17" points="0 50.43 10.79 58.86 10.2 58.86 0 50.89 0 50.43"/><polygon class="cls-18" points="0 49.97 11.37 58.86 10.79 58.86 0 50.43 0 49.97"/><polygon class="cls-19" points="0 49.51 11.96 58.86 11.37 58.86 0 49.97 0 49.51"/><polygon class="cls-20" points="0 49.05 12.55 58.86 11.96 58.86 0 49.51 0 49.05"/><polygon class="cls-21" points="0 48.58 13.14 58.86 12.55 58.86 0 49.05 0 48.58"/><polygon class="cls-22" points="0 48.12 13.73 58.86 13.14 58.86 0 48.58 0 48.12"/><polygon class="cls-23" points="0 47.66 14.32 58.86 13.73 58.86 0 48.12 0 47.66"/><polygon class="cls-24" points="0 47.2 14.91 58.86 14.32 58.86 0 47.66 0 47.2"/><polygon class="cls-25" points="0 46.74 15.5 58.86 14.91 58.86 0 47.2 0 46.74"/><polygon class="cls-26" points="0 46.28 16.09 58.86 15.5 58.86 0 46.74 0 46.28"/><polygon class="cls-27" points="0 45.82 16.67 58.86 16.09 58.86 0 46.28 0 45.82"/><polygon class="cls-28" points="0 45.36 17.26 58.86 16.67 58.86 0 45.82 0 45.36"/><polygon class="cls-29" points="0 44.9 17.85 58.86 17.26 58.86 0 45.36 0 44.9"/><polygon class="cls-30" points="0 44.44 18.44 58.86 17.85 58.86 0 44.9 0 44.44"/><polygon class="cls-31" points="0 43.98 19.03 58.86 18.44 58.86 0 44.44 0 43.98"/><polygon class="cls-32" points="0 43.52 19.62 58.86 19.03 58.86 0 43.98 0 43.52"/><polygon class="cls-33" points="0 43.06 20.21 58.86 19.62 58.86 0 43.52 0 43.06"/><polygon class="cls-34" points="0 42.6 20.8 58.86 20.21 58.86 0 43.06 0 42.6"/><polygon class="cls-35" points="0 42.14 21.39 58.86 20.8 58.86 0 42.6 0 42.14"/><polygon class="cls-36" points="0 41.68 21.97 58.86 21.39 58.86 0 42.14 0 41.68"/><polygon class="cls-37" points="0 41.36 0.07 41.27 22.56 58.86 21.97 58.86 0 41.68 0 41.36"/><polygon class="cls-38" points="0.07 41.27 0.29 40.99 23.15 58.86 22.56 58.86 0.07 41.27"/><polygon class="cls-39" points="0.29 40.99 0.52 40.7 23.74 58.86 23.15 58.86 0.29 40.99"/><polygon class="cls-40" points="0.52 40.7 0.74 40.41 24.33 58.86 23.74 58.86 0.52 40.7"/><polygon class="cls-41" points="0.74 40.41 0.97 40.13 24.92 58.86 24.33 58.86 0.74 40.41"/><polygon class="cls-42" points="0.97 40.13 1.19 39.84 25.51 58.86 24.92 58.86 0.97 40.13"/><polygon class="cls-43" points="1.19 39.84 1.41 39.56 26.1 58.86 25.51 58.86 1.19 39.84"/><polygon class="cls-44" points="1.41 39.56 1.64 39.27 26.68 58.86 26.1 58.86 1.41 39.56"/><polygon class="cls-45" points="1.64 39.27 1.86 38.99 27.27 58.86 26.68 58.86 1.64 39.27"/><polygon class="cls-46" points="1.86 38.99 2.08 38.7 27.86 58.86 27.27 58.86 1.86 38.99"/><polygon class="cls-47" points="2.08 38.7 2.31 38.41 28.45 58.86 27.86 58.86 2.08 38.7"/><polygon class="cls-48" points="2.31 38.41 2.53 38.13 29.04 58.86 28.45 58.86 2.31 38.41"/><polygon class="cls-49" points="2.53 38.13 2.75 37.84 29.63 58.86 29.04 58.86 2.53 38.13"/><polygon class="cls-50" points="2.75 37.84 2.98 37.56 30.22 58.86 29.63 58.86 2.75 37.84"/><polygon class="cls-51" points="2.98 37.56 3.2 37.27 30.81 58.86 30.22 58.86 2.98 37.56"/><polygon class="cls-52" points="3.2 37.27 3.42 36.99 31.4 58.86 30.81 58.86 3.2 37.27"/><polygon class="cls-53" points="3.42 36.99 3.65 36.7 31.98 58.86 31.4 58.86 3.42 36.99"/><polygon class="cls-54" points="3.65 36.7 3.87 36.41 32.57 58.86 31.98 58.86 3.65 36.7"/><polygon class="cls-55" points="3.87 36.41 4.09 36.13 33.16 58.86 32.57 58.86 3.87 36.41"/><polygon class="cls-56" points="4.09 36.13 4.32 35.84 33.75 58.86 33.16 58.86 4.09 36.13"/><polygon class="cls-57" points="4.32 35.84 4.54 35.56 34.34 58.86 33.75 58.86 4.32 35.84"/><polygon class="cls-58" points="4.54 35.56 4.76 35.27 34.93 58.86 34.34 58.86 4.54 35.56"/><polygon class="cls-59" points="4.76 35.27 4.99 34.99 35.52 58.86 34.93 58.86 4.76 35.27"/><polygon class="cls-60" points="4.99 34.99 5.21 34.7 36.11 58.86 35.52 58.86 4.99 34.99"/><polygon class="cls-61" points="5.21 34.7 5.43 34.41 36.7 58.86 36.11 58.86 5.21 34.7"/><polygon class="cls-62" points="5.43 34.41 5.66 34.13 37.28 58.86 36.7 58.86 5.43 34.41"/><polygon class="cls-63" points="5.66 34.13 5.88 33.84 37.87 58.86 37.28 58.86 5.66 34.13"/><polygon class="cls-64" points="5.88 33.84 6.11 33.56 38.46 58.86 37.87 58.86 5.88 33.84"/><polygon class="cls-65" points="6.11 33.56 6.33 33.27 39.05 58.86 38.46 58.86 6.11 33.56"/><polygon class="cls-66" points="6.33 33.27 6.55 32.98 39.64 58.86 39.05 58.86 6.33 33.27"/><polygon class="cls-67" points="6.55 32.98 6.78 32.7 40.23 58.86 39.64 58.86 6.55 32.98"/><polygon class="cls-68" points="6.78 32.7 6.96 32.47 7.07 32.47 40.82 58.86 40.23 58.86 6.78 32.7"/><polygon class="cls-69" points="7.66 32.47 41.41 58.86 40.82 58.86 7.07 32.47 7.66 32.47"/><polygon class="cls-70" points="8.25 32.47 42 58.86 41.41 58.86 7.66 32.47 8.25 32.47"/><polygon class="cls-71" points="8.84 32.47 42.59 58.86 42 58.86 8.25 32.47 8.84 32.47"/><polygon class="cls-72" points="9.43 32.47 43.17 58.86 42.59 58.86 8.84 32.47 9.43 32.47"/><polygon class="cls-73" points="10.02 32.47 43.76 58.86 43.17 58.86 9.43 32.47 10.02 32.47"/><polygon class="cls-74" points="10.61 32.47 43.77 58.4 43.77 58.86 43.76 58.86 10.02 32.47 10.61 32.47"/><polygon class="cls-75" points="11.19 32.47 43.77 57.94 43.77 58.4 10.61 32.47 11.19 32.47"/><polygon class="cls-76" points="11.78 32.47 43.77 57.48 43.77 57.94 11.19 32.47 11.78 32.47"/><polygon class="cls-77" points="12.37 32.47 43.77 57.02 43.77 57.48 11.78 32.47 12.37 32.47"/><polygon class="cls-78" points="12.96 32.47 43.77 56.56 43.77 57.02 12.37 32.47 12.96 32.47"/><polygon class="cls-79" points="13.55 32.47 43.77 56.1 43.77 56.56 12.96 32.47 13.55 32.47"/><polygon class="cls-80" points="14.14 32.47 43.77 55.64 43.77 56.1 13.55 32.47 14.14 32.47"/><polygon class="cls-81" points="14.73 32.47 43.77 55.18 43.77 55.64 14.14 32.47 14.73 32.47"/><polygon class="cls-82" points="15.32 32.47 43.77 54.72 43.77 55.18 14.73 32.47 15.32 32.47"/><polygon class="cls-83" points="15.9 32.47 43.77 54.26 43.77 54.72 15.32 32.47 15.9 32.47"/><polygon class="cls-84" points="16.49 32.47 43.77 53.8 43.77 54.26 15.9 32.47 16.49 32.47"/><polygon class="cls-85" points="17.08 32.47 43.77 53.34 43.77 53.8 16.49 32.47 17.08 32.47"/><polygon class="cls-86" points="17.67 32.47 43.77 52.88 43.77 53.34 17.08 32.47 17.67 32.47"/><polygon class="cls-87" points="18.26 32.47 43.77 52.42 43.77 52.88 17.67 32.47 18.26 32.47"/><polygon class="cls-88" points="18.85 32.47 43.77 51.96 43.77 52.42 18.26 32.47 18.85 32.47"/><polygon class="cls-89" points="19.44 32.47 43.77 51.5 43.77 51.96 18.85 32.47 19.44 32.47"/><polygon class="cls-90" points="20.03 32.47 43.77 51.04 43.77 51.5 19.44 32.47 20.03 32.47"/><polygon class="cls-91" points="20.62 32.47 43.77 50.58 43.77 51.04 20.03 32.47 20.62 32.47"/><polygon class="cls-92" points="21.2 32.47 43.77 50.12 43.77 50.58 20.62 32.47 21.2 32.47"/><polygon class="cls-92" points="43.77 50.12 21.2 32.47 43.77 32.47 43.77 50.12"/></g><g class="cls-93"><polygon class="cls-3" points="6.4 24.19 14 27.7 14 28.44 6.4 28.44 6.4 24.19"/><polygon class="cls-3" points="6.4 24.05 14 27.56 14 27.7 6.4 24.19 6.4 24.05"/><polygon class="cls-4" points="6.4 23.91 14 27.42 14 27.56 6.4 24.05 6.4 23.91"/><polygon class="cls-5" points="6.4 23.77 14 27.29 14 27.42 6.4 23.91 6.4 23.77"/><polygon class="cls-6" points="6.4 23.63 14 27.15 14 27.29 6.4 23.77 6.4 23.63"/><polygon class="cls-7" points="6.4 23.5 14 27.01 14 27.15 6.4 23.63 6.4 23.5"/><polygon class="cls-8" points="6.4 23.36 14 26.87 14 27.01 6.4 23.5 6.4 23.36"/><polygon class="cls-9" points="6.4 23.22 14 26.73 14 26.87 6.4 23.36 6.4 23.22"/><polygon class="cls-10" points="6.4 23.08 14 26.59 14 26.73 6.4 23.22 6.4 23.08"/><polygon class="cls-11" points="6.4 22.94 14 26.45 14 26.59 6.4 23.08 6.4 22.94"/><polygon class="cls-12" points="6.4 22.8 14 26.31 14 26.45 6.4 22.94 6.4 22.8"/><polygon class="cls-13" points="6.4 22.66 14 26.18 14 26.31 6.4 22.8 6.4 22.66"/><polygon class="cls-14" points="6.4 22.52 14 26.04 14 26.18 6.4 22.66 6.4 22.52"/><polygon class="cls-15" points="6.4 22.38 14 25.9 14 26.04 6.4 22.52 6.4 22.38"/><polygon class="cls-16" points="6.4 22.25 14 25.76 14 25.9 6.4 22.38 6.4 22.25"/><polygon class="cls-17" points="6.4 22.11 14 25.62 14 25.76 6.4 22.25 6.4 22.11"/><polygon class="cls-18" points="6.4 21.97 14 25.48 14 25.62 6.4 22.11 6.4 21.97"/><polygon class="cls-19" points="6.4 21.83 14 25.34 14 25.48 6.4 21.97 6.4 21.83"/><polygon class="cls-20" points="6.4 21.69 14 25.2 14 25.34 6.4 21.83 6.4 21.69"/><polygon class="cls-21" points="6.4 21.55 14 25.07 14 25.2 6.4 21.69 6.4 21.55"/><polygon class="cls-22" points="6.4 21.41 14 24.93 14 25.07 6.4 21.55 6.4 21.41"/><polygon class="cls-23" points="6.4 21.27 14 24.79 14 24.93 6.4 21.41 6.4 21.27"/><polygon class="cls-24" points="6.4 21.14 14 24.65 14 24.79 6.4 21.27 6.4 21.14"/><polygon class="cls-25" points="6.4 21 14 24.51 14 24.65 6.4 21.14 6.4 21"/><polygon class="cls-26" points="6.4 20.86 14 24.37 14 24.51 6.4 21 6.4 20.86"/><polygon class="cls-27" points="6.4 20.72 14 24.23 14 24.37 6.4 20.86 6.4 20.72"/><polygon class="cls-28" points="6.4 20.58 14 24.09 14 24.23 6.4 20.72 6.4 20.58"/><polygon class="cls-29" points="6.4 20.44 14 23.95 14 24.09 6.4 20.58 6.4 20.44"/><polygon class="cls-30" points="6.4 20.3 14 23.82 14 23.95 6.4 20.44 6.4 20.3"/><polygon class="cls-31" points="6.4 20.16 14 23.68 14 23.82 6.4 20.3 6.4 20.16"/><polygon class="cls-32" points="6.4 20.02 14 23.54 14 23.68 6.4 20.16 6.4 20.02"/><polygon class="cls-33" points="6.4 19.89 14 23.4 14 23.54 6.4 20.02 6.4 19.89"/><polygon class="cls-34" points="6.4 19.75 14 23.26 14 23.4 6.4 19.89 6.4 19.75"/><polygon class="cls-35" points="6.4 19.61 14 23.12 14 23.26 6.4 19.75 6.4 19.61"/><polygon class="cls-36" points="6.4 19.47 14 22.98 14 23.12 6.4 19.61 6.4 19.47"/><polygon class="cls-37" points="6.4 19.33 14 22.84 14 22.98 6.4 19.47 6.4 19.33"/><polygon class="cls-38" points="6.4 19.19 14 22.7 14 22.84 6.4 19.33 6.4 19.19"/><polygon class="cls-39" points="6.4 19.05 14 22.57 14 22.7 6.4 19.19 6.4 19.05"/><polygon class="cls-40" points="6.4 18.91 14 22.43 14 22.57 6.4 19.05 6.4 18.91"/><polygon class="cls-41" points="6.4 18.78 14 22.29 14 22.43 6.4 18.91 6.4 18.78"/><polygon class="cls-42" points="6.4 18.64 14 22.15 14 22.29 6.4 18.78 6.4 18.64"/><polygon class="cls-43" points="6.4 18.5 14 22.01 14 22.15 6.4 18.64 6.4 18.5"/><polygon class="cls-44" points="6.4 18.36 14 21.87 14 22.01 6.4 18.5 6.4 18.36"/><polygon class="cls-45" points="6.4 18.22 14 21.73 14 21.87 6.4 18.36 6.4 18.22"/><polygon class="cls-46" points="6.4 18.08 14 21.59 14 21.73 6.4 18.22 6.4 18.08"/><polygon class="cls-47" points="6.4 17.94 14 21.46 14 21.59 6.4 18.08 6.4 17.94"/><polygon class="cls-48" points="6.4 17.8 14 21.32 14 21.46 6.4 17.94 6.4 17.8"/><polygon class="cls-49" points="6.4 17.67 14 21.18 14 21.32 6.4 17.8 6.4 17.67"/><polygon class="cls-50" points="6.4 17.53 14 21.04 14 21.18 6.4 17.67 6.4 17.53"/><polygon class="cls-51" points="6.4 17.39 14 20.9 14 21.04 6.4 17.53 6.4 17.39"/><polygon class="cls-52" points="6.4 17.25 14 20.76 14 20.9 6.4 17.39 6.4 17.25"/><polygon class="cls-53" points="6.4 17.11 14 20.62 14 20.76 6.4 17.25 6.4 17.11"/><polygon class="cls-54" points="6.4 16.97 14 20.48 14 20.62 6.4 17.11 6.4 16.97"/><polygon class="cls-55" points="6.4 16.83 14 20.35 14 20.48 6.4 16.97 6.4 16.83"/><polygon class="cls-56" points="6.4 16.69 14 20.21 14 20.35 6.4 16.83 6.4 16.69"/><polygon class="cls-57" points="6.4 16.56 14 20.07 14 20.21 6.4 16.69 6.4 16.56"/><polygon class="cls-58" points="6.4 16.42 14 19.93 14 20.07 6.4 16.56 6.4 16.42"/><polygon class="cls-59" points="6.4 16.28 14 19.79 14 19.93 6.4 16.42 6.4 16.28"/><polygon class="cls-60" points="6.4 16.14 14 19.65 14 19.79 6.4 16.28 6.4 16.14"/><polygon class="cls-61" points="6.4 16 14 19.51 14 19.65 6.4 16.14 6.4 16"/><polygon class="cls-62" points="6.4 15.86 14 19.38 14 19.51 6.4 16 6.4 15.86"/><polygon class="cls-63" points="6.4 15.72 14 19.24 14 19.38 6.4 15.86 6.4 15.72"/><polygon class="cls-64" points="6.4 15.58 14 19.1 14 19.24 6.4 15.72 6.4 15.58"/><polygon class="cls-65" points="6.4 15.45 14 18.96 14 19.1 6.4 15.58 6.4 15.45"/><polygon class="cls-66" points="6.4 15.31 14 18.82 14 18.96 6.4 15.45 6.4 15.31"/><polygon class="cls-67" points="6.4 15.17 14 18.68 14 18.82 6.4 15.31 6.4 15.17"/><polygon class="cls-68" points="6.4 15.03 14 18.54 14 18.68 6.4 15.17 6.4 15.03"/><polygon class="cls-69" points="6.4 14.89 14 18.4 14 18.54 6.4 15.03 6.4 14.89"/><polygon class="cls-70" points="6.4 14.75 14 18.26 14 18.4 6.4 14.89 6.4 14.75"/><polygon class="cls-71" points="6.4 14.61 14 18.13 14 18.26 6.4 14.75 6.4 14.61"/><polygon class="cls-72" points="6.4 14.47 14 17.99 14 18.13 6.4 14.61 6.4 14.47"/><polygon class="cls-73" points="6.4 14.34 14 17.85 14 17.99 6.4 14.47 6.4 14.34"/><polygon class="cls-74" points="6.4 14.2 14 17.71 14 17.85 6.4 14.34 6.4 14.2"/><polygon class="cls-75" points="6.4 14.06 14 17.57 14 17.71 6.4 14.2 6.4 14.06"/><polygon class="cls-76" points="6.4 13.92 14 17.43 14 17.57 6.4 14.06 6.4 13.92"/><polygon class="cls-77" points="6.4 13.78 14 17.29 14 17.43 6.4 13.92 6.4 13.78"/><polygon class="cls-78" points="6.4 13.64 14 17.15 14 17.29 6.4 13.78 6.4 13.64"/><polygon class="cls-79" points="6.4 13.5 14 17.02 14 17.15 6.4 13.64 6.4 13.5"/><polygon class="cls-80" points="6.4 13.36 14 16.88 14 17.02 6.4 13.5 6.4 13.36"/><polygon class="cls-81" points="6.4 13.22 14 16.74 14 16.88 6.4 13.36 6.4 13.22"/><polygon class="cls-82" points="6.4 13.09 14 16.6 14 16.74 6.4 13.22 6.4 13.09"/><polygon class="cls-83" points="6.4 12.95 14 16.46 14 16.6 6.4 13.09 6.4 12.95"/><polygon class="cls-84" points="6.4 12.81 14 16.32 14 16.46 6.4 12.95 6.4 12.81"/><polygon class="cls-85" points="6.4 12.67 14 16.18 14 16.32 6.4 12.81 6.4 12.67"/><polygon class="cls-86" points="6.4 12.53 14 16.04 14 16.18 6.4 12.67 6.4 12.53"/><polygon class="cls-87" points="6.4 12.39 14 15.9 14 16.04 6.4 12.53 6.4 12.39"/><polygon class="cls-88" points="6.4 12.25 14 15.77 14 15.9 6.4 12.39 6.4 12.25"/><polygon class="cls-89" points="6.4 12.12 14 15.63 14 15.77 6.4 12.25 6.4 12.12"/><polygon class="cls-90" points="6.4 11.98 14 15.49 14 15.63 6.4 12.12 6.4 11.98"/><polygon class="cls-91" points="6.4 11.84 14 15.35 14 15.49 6.4 11.98 6.4 11.84"/><polygon class="cls-92" points="6.4 11.7 14 15.21 14 15.35 6.4 11.84 6.4 11.7"/><polygon class="cls-92" points="14 15.21 6.4 11.7 6.4 1.93 14 1.93 14 15.21"/></g><g class="cls-94"><polygon class="cls-3" points="17.22 23.94 24.82 27.45 24.82 28.45 17.22 28.45 17.22 23.94"/><polygon class="cls-3" points="17.22 23.79 24.82 27.3 24.82 27.45 17.22 23.94 17.22 23.79"/><polygon class="cls-4" points="17.22 23.64 24.82 27.16 24.82 27.3 17.22 23.79 17.22 23.64"/><polygon class="cls-5" points="17.22 23.5 24.82 27.01 24.82 27.16 17.22 23.64 17.22 23.5"/><polygon class="cls-6" points="17.22 23.35 24.82 26.86 24.82 27.01 17.22 23.5 17.22 23.35"/><polygon class="cls-7" points="17.22 23.2 24.82 26.71 24.82 26.86 17.22 23.35 17.22 23.2"/><polygon class="cls-8" points="17.22 23.05 24.82 26.56 24.82 26.71 17.22 23.2 17.22 23.05"/><polygon class="cls-9" points="17.22 22.9 24.82 26.42 24.82 26.56 17.22 23.05 17.22 22.9"/><polygon class="cls-10" points="17.22 22.75 24.82 26.27 24.82 26.42 17.22 22.9 17.22 22.75"/><polygon class="cls-11" points="17.22 22.61 24.82 26.12 24.82 26.27 17.22 22.75 17.22 22.61"/><polygon class="cls-12" points="17.22 22.46 24.82 25.97 24.82 26.12 17.22 22.61 17.22 22.46"/><polygon class="cls-13" points="17.22 22.31 24.82 25.82 24.82 25.97 17.22 22.46 17.22 22.31"/><polygon class="cls-14" points="17.22 22.16 24.82 25.68 24.82 25.82 17.22 22.31 17.22 22.16"/><polygon class="cls-15" points="17.22 22.01 24.82 25.53 24.82 25.68 17.22 22.16 17.22 22.01"/><polygon class="cls-16" points="17.22 21.87 24.82 25.38 24.82 25.53 17.22 22.01 17.22 21.87"/><polygon class="cls-17" points="17.22 21.72 24.82 25.23 24.82 25.38 17.22 21.87 17.22 21.72"/><polygon class="cls-18" points="17.22 21.57 24.82 25.08 24.82 25.23 17.22 21.72 17.22 21.57"/><polygon class="cls-19" points="17.22 21.42 24.82 24.93 24.82 25.08 17.22 21.57 17.22 21.42"/><polygon class="cls-20" points="17.22 21.27 24.82 24.79 24.82 24.93 17.22 21.42 17.22 21.27"/><polygon class="cls-21" points="17.22 21.13 24.82 24.64 24.82 24.79 17.22 21.27 17.22 21.13"/><polygon class="cls-22" points="17.22 20.98 24.82 24.49 24.82 24.64 17.22 21.13 17.22 20.98"/><polygon class="cls-23" points="17.22 20.83 24.82 24.34 24.82 24.49 17.22 20.98 17.22 20.83"/><polygon class="cls-24" points="17.22 20.68 24.82 24.19 24.82 24.34 17.22 20.83 17.22 20.68"/><polygon class="cls-25" points="17.22 20.53 24.82 24.05 24.82 24.19 17.22 20.68 17.22 20.53"/><polygon class="cls-26" points="17.22 20.38 24.82 23.9 24.82 24.05 17.22 20.53 17.22 20.38"/><polygon class="cls-27" points="17.22 20.24 24.82 23.75 24.82 23.9 17.22 20.38 17.22 20.24"/><polygon class="cls-28" points="17.22 20.09 24.82 23.6 24.82 23.75 17.22 20.24 17.22 20.09"/><polygon class="cls-29" points="17.22 19.94 24.82 23.45 24.82 23.6 17.22 20.09 17.22 19.94"/><polygon class="cls-30" points="17.22 19.79 24.82 23.3 24.82 23.45 17.22 19.94 17.22 19.79"/><polygon class="cls-31" points="17.22 19.64 24.82 23.16 24.82 23.3 17.22 19.79 17.22 19.64"/><polygon class="cls-32" points="17.22 19.5 24.82 23.01 24.82 23.16 17.22 19.64 17.22 19.5"/><polygon class="cls-33" points="17.22 19.35 24.82 22.86 24.82 23.01 17.22 19.5 17.22 19.35"/><polygon class="cls-34" points="17.22 19.2 24.82 22.71 24.82 22.86 17.22 19.35 17.22 19.2"/><polygon class="cls-35" points="17.22 19.05 24.82 22.56 24.82 22.71 17.22 19.2 17.22 19.05"/><polygon class="cls-36" points="17.22 18.9 24.82 22.41 24.82 22.56 17.22 19.05 17.22 18.9"/><polygon class="cls-37" points="17.22 18.75 24.82 22.27 24.82 22.41 17.22 18.9 17.22 18.75"/><polygon class="cls-38" points="17.22 18.61 24.82 22.12 24.82 22.27 17.22 18.75 17.22 18.61"/><polygon class="cls-39" points="17.22 18.46 24.82 21.97 24.82 22.12 17.22 18.61 17.22 18.46"/><polygon class="cls-40" points="17.22 18.31 24.82 21.82 24.82 21.97 17.22 18.46 17.22 18.31"/><polygon class="cls-41" points="17.22 18.16 24.82 21.67 24.82 21.82 17.22 18.31 17.22 18.16"/><polygon class="cls-42" points="17.22 18.01 24.82 21.53 24.82 21.67 17.22 18.16 17.22 18.01"/><polygon class="cls-43" points="17.22 17.86 24.82 21.38 24.82 21.53 17.22 18.01 17.22 17.86"/><polygon class="cls-44" points="17.22 17.72 24.82 21.23 24.82 21.38 17.22 17.86 17.22 17.72"/><polygon class="cls-45" points="17.22 17.57 24.82 21.08 24.82 21.23 17.22 17.72 17.22 17.57"/><polygon class="cls-46" points="17.22 17.42 24.82 20.93 24.82 21.08 17.22 17.57 17.22 17.42"/><polygon class="cls-47" points="17.22 17.27 24.82 20.79 24.82 20.93 17.22 17.42 17.22 17.27"/><polygon class="cls-48" points="17.22 17.13 24.82 20.64 24.82 20.79 17.22 17.27 17.22 17.13"/><polygon class="cls-49" points="17.22 16.98 24.82 20.49 24.82 20.64 17.22 17.13 17.22 16.98"/><polygon class="cls-50" points="17.22 16.83 24.82 20.34 24.82 20.49 17.22 16.98 17.22 16.83"/><polygon class="cls-51" points="17.22 16.68 24.82 20.19 24.82 20.34 17.22 16.83 17.22 16.68"/><polygon class="cls-52" points="17.22 16.53 24.82 20.05 24.82 20.19 17.22 16.68 17.22 16.53"/><polygon class="cls-53" points="17.22 16.38 24.82 19.9 24.82 20.05 17.22 16.53 17.22 16.38"/><polygon class="cls-54" points="17.22 16.24 24.82 19.75 24.82 19.9 17.22 16.38 17.22 16.24"/><polygon class="cls-55" points="17.22 16.09 24.82 19.6 24.82 19.75 17.22 16.24 17.22 16.09"/><polygon class="cls-56" points="17.22 15.94 24.82 19.45 24.82 19.6 17.22 16.09 17.22 15.94"/><polygon class="cls-57" points="17.22 15.79 24.82 19.3 24.82 19.45 17.22 15.94 17.22 15.79"/><polygon class="cls-58" points="17.22 15.64 24.82 19.16 24.82 19.3 17.22 15.79 17.22 15.64"/><polygon class="cls-59" points="17.22 15.49 24.82 19.01 24.82 19.16 17.22 15.64 17.22 15.49"/><polygon class="cls-60" points="17.22 15.35 24.82 18.86 24.82 19.01 17.22 15.49 17.22 15.35"/><polygon class="cls-61" points="17.22 15.2 24.82 18.71 24.82 18.86 17.22 15.35 17.22 15.2"/><polygon class="cls-62" points="17.22 15.05 24.82 18.56 24.82 18.71 17.22 15.2 17.22 15.05"/><polygon class="cls-63" points="17.22 14.9 24.82 18.41 24.82 18.56 17.22 15.05 17.22 14.9"/><polygon class="cls-64" points="17.22 14.75 24.82 18.27 24.82 18.41 17.22 14.9 17.22 14.75"/><polygon class="cls-65" points="17.22 14.61 24.82 18.12 24.82 18.27 17.22 14.75 17.22 14.61"/><polygon class="cls-66" points="17.22 14.46 24.82 17.97 24.82 18.12 17.22 14.61 17.22 14.46"/><polygon class="cls-67" points="17.22 14.31 24.82 17.82 24.82 17.97 17.22 14.46 17.22 14.31"/><polygon class="cls-68" points="17.22 14.16 24.82 17.67 24.82 17.82 17.22 14.31 17.22 14.16"/><polygon class="cls-69" points="17.22 14.01 24.82 17.53 24.82 17.67 17.22 14.16 17.22 14.01"/><polygon class="cls-70" points="17.22 13.87 24.82 17.38 24.82 17.53 17.22 14.01 17.22 13.87"/><polygon class="cls-71" points="17.22 13.72 24.82 17.23 24.82 17.38 17.22 13.87 17.22 13.72"/><polygon class="cls-72" points="17.22 13.57 24.82 17.08 24.82 17.23 17.22 13.72 17.22 13.57"/><polygon class="cls-73" points="17.22 13.42 24.82 16.93 24.82 17.08 17.22 13.57 17.22 13.42"/><polygon class="cls-74" points="17.22 13.27 24.82 16.79 24.82 16.93 17.22 13.42 17.22 13.27"/><polygon class="cls-75" points="17.22 13.12 24.82 16.64 24.82 16.79 17.22 13.27 17.22 13.12"/><polygon class="cls-76" points="17.22 12.98 24.82 16.49 24.82 16.64 17.22 13.12 17.22 12.98"/><polygon class="cls-77" points="17.22 12.83 24.82 16.34 24.82 16.49 17.22 12.98 17.22 12.83"/><polygon class="cls-78" points="17.22 12.68 24.82 16.19 24.82 16.34 17.22 12.83 17.22 12.68"/><polygon class="cls-79" points="17.22 12.53 24.82 16.04 24.82 16.19 17.22 12.68 17.22 12.53"/><polygon class="cls-80" points="17.22 12.38 24.82 15.9 24.82 16.04 17.22 12.53 17.22 12.38"/><polygon class="cls-81" points="17.22 12.23 24.82 15.75 24.82 15.9 17.22 12.38 17.22 12.23"/><polygon class="cls-82" points="17.22 12.09 24.82 15.6 24.82 15.75 17.22 12.23 17.22 12.09"/><polygon class="cls-83" points="17.22 11.94 24.82 15.45 24.82 15.6 17.22 12.09 17.22 11.94"/><polygon class="cls-84" points="17.22 11.79 24.82 15.3 24.82 15.45 17.22 11.94 17.22 11.79"/><polygon class="cls-85" points="17.22 11.64 24.82 15.15 24.82 15.3 17.22 11.79 17.22 11.64"/><polygon class="cls-86" points="17.22 11.49 24.82 15.01 24.82 15.15 17.22 11.64 17.22 11.49"/><polygon class="cls-87" points="17.22 11.35 24.82 14.86 24.82 15.01 17.22 11.49 17.22 11.35"/><polygon class="cls-88" points="17.22 11.2 24.82 14.71 24.82 14.86 17.22 11.35 17.22 11.2"/><polygon class="cls-89" points="17.22 11.05 24.82 14.56 24.82 14.71 17.22 11.2 17.22 11.05"/><polygon class="cls-90" points="17.22 10.9 24.82 14.41 24.82 14.56 17.22 11.05 17.22 10.9"/><polygon class="cls-91" points="17.22 10.75 24.82 14.27 24.82 14.41 17.22 10.9 17.22 10.75"/><polygon class="cls-92" points="17.22 10.61 24.82 14.12 24.82 14.27 17.22 10.75 17.22 10.61"/><polygon class="cls-92" points="24.82 14.12 17.22 10.61 17.22 0 24.82 0 24.82 14.12"/></g><g class="cls-95"><polygon class="cls-3" points="28.12 24.3 35.72 27.82 35.72 28.44 28.12 28.44 28.12 24.3"/><polygon class="cls-3" points="28.12 24.17 35.72 27.68 35.72 27.82 28.12 24.3 28.12 24.17"/><polygon class="cls-4" points="28.12 24.03 35.72 27.55 35.72 27.68 28.12 24.17 28.12 24.03"/><polygon class="cls-5" points="28.12 23.9 35.72 27.42 35.72 27.55 28.12 24.03 28.12 23.9"/><polygon class="cls-6" points="28.12 23.76 35.72 27.28 35.72 27.42 28.12 23.9 28.12 23.76"/><polygon class="cls-7" points="28.12 23.63 35.72 27.15 35.72 27.28 28.12 23.76 28.12 23.63"/><polygon class="cls-8" points="28.12 23.5 35.72 27.01 35.72 27.15 28.12 23.63 28.12 23.5"/><polygon class="cls-9" points="28.12 23.36 35.72 26.88 35.72 27.01 28.12 23.5 28.12 23.36"/><polygon class="cls-10" points="28.12 23.23 35.72 26.74 35.72 26.88 28.12 23.36 28.12 23.23"/><polygon class="cls-11" points="28.12 23.09 35.72 26.61 35.72 26.74 28.12 23.23 28.12 23.09"/><polygon class="cls-12" points="28.12 22.96 35.72 26.47 35.72 26.61 28.12 23.09 28.12 22.96"/><polygon class="cls-13" points="28.12 22.82 35.72 26.34 35.72 26.47 28.12 22.96 28.12 22.82"/><polygon class="cls-14" points="28.12 22.69 35.72 26.2 35.72 26.34 28.12 22.82 28.12 22.69"/><polygon class="cls-15" points="28.12 22.55 35.72 26.07 35.72 26.2 28.12 22.69 28.12 22.55"/><polygon class="cls-16" points="28.12 22.42 35.72 25.93 35.72 26.07 28.12 22.55 28.12 22.42"/><polygon class="cls-17" points="28.12 22.28 35.72 25.8 35.72 25.93 28.12 22.42 28.12 22.28"/><polygon class="cls-18" points="28.12 22.15 35.72 25.66 35.72 25.8 28.12 22.28 28.12 22.15"/><polygon class="cls-19" points="28.12 22.01 35.72 25.53 35.72 25.66 28.12 22.15 28.12 22.01"/><polygon class="cls-20" points="28.12 21.88 35.72 25.39 35.72 25.53 28.12 22.01 28.12 21.88"/><polygon class="cls-21" points="28.12 21.74 35.72 25.26 35.72 25.39 28.12 21.88 28.12 21.74"/><polygon class="cls-22" points="28.12 21.61 35.72 25.13 35.72 25.26 28.12 21.74 28.12 21.61"/><polygon class="cls-23" points="28.12 21.47 35.72 24.99 35.72 25.13 28.12 21.61 28.12 21.47"/><polygon class="cls-24" points="28.12 21.34 35.72 24.86 35.72 24.99 28.12 21.47 28.12 21.34"/><polygon class="cls-25" points="28.12 21.2 35.72 24.72 35.72 24.86 28.12 21.34 28.12 21.2"/><polygon class="cls-26" points="28.12 21.07 35.72 24.59 35.72 24.72 28.12 21.2 28.12 21.07"/><polygon class="cls-27" points="28.12 20.93 35.72 24.45 35.72 24.59 28.12 21.07 28.12 20.93"/><polygon class="cls-28" points="28.12 20.8 35.72 24.32 35.72 24.45 28.12 20.93 28.12 20.8"/><polygon class="cls-29" points="28.12 20.66 35.72 24.18 35.72 24.32 28.12 20.8 28.12 20.66"/><polygon class="cls-30" points="28.12 20.53 35.72 24.05 35.72 24.18 28.12 20.66 28.12 20.53"/><polygon class="cls-31" points="28.12 20.39 35.72 23.91 35.72 24.05 28.12 20.53 28.12 20.39"/><polygon class="cls-32" points="28.12 20.26 35.72 23.78 35.72 23.91 28.12 20.39 28.12 20.26"/><polygon class="cls-33" points="28.12 20.13 35.72 23.64 35.72 23.78 28.12 20.26 28.12 20.13"/><polygon class="cls-34" points="28.12 19.99 35.72 23.51 35.72 23.64 28.12 20.13 28.12 19.99"/><polygon class="cls-35" points="28.12 19.86 35.72 23.37 35.72 23.51 28.12 19.99 28.12 19.86"/><polygon class="cls-36" points="28.12 19.72 35.72 23.24 35.72 23.37 28.12 19.86 28.12 19.72"/><polygon class="cls-37" points="28.12 19.59 35.72 23.1 35.72 23.24 28.12 19.72 28.12 19.59"/><polygon class="cls-38" points="28.12 19.45 35.72 22.97 35.72 23.1 28.12 19.59 28.12 19.45"/><polygon class="cls-39" points="28.12 19.32 35.72 22.83 35.72 22.97 28.12 19.45 28.12 19.32"/><polygon class="cls-40" points="28.12 19.18 35.72 22.7 35.72 22.83 28.12 19.32 28.12 19.18"/><polygon class="cls-41" points="28.12 19.05 35.72 22.57 35.72 22.7 28.12 19.18 28.12 19.05"/><polygon class="cls-42" points="28.12 18.91 35.72 22.43 35.72 22.57 28.12 19.05 28.12 18.91"/><polygon class="cls-43" points="28.12 18.78 35.72 22.3 35.72 22.43 28.12 18.91 28.12 18.78"/><polygon class="cls-44" points="28.12 18.64 35.72 22.16 35.72 22.3 28.12 18.78 28.12 18.64"/><polygon class="cls-45" points="28.12 18.51 35.72 22.03 35.72 22.16 28.12 18.64 28.12 18.51"/><polygon class="cls-46" points="28.12 18.37 35.72 21.89 35.72 22.03 28.12 18.51 28.12 18.37"/><polygon class="cls-47" points="28.12 18.24 35.72 21.76 35.72 21.89 28.12 18.37 28.12 18.24"/><polygon class="cls-48" points="28.12 18.11 35.72 21.62 35.72 21.76 28.12 18.24 28.12 18.11"/><polygon class="cls-49" points="28.12 17.97 35.72 21.49 35.72 21.62 28.12 18.11 28.12 17.97"/><polygon class="cls-50" points="28.12 17.84 35.72 21.35 35.72 21.49 28.12 17.97 28.12 17.84"/><polygon class="cls-51" points="28.12 17.7 35.72 21.22 35.72 21.35 28.12 17.84 28.12 17.7"/><polygon class="cls-52" points="28.12 17.57 35.72 21.08 35.72 21.22 28.12 17.7 28.12 17.57"/><polygon class="cls-53" points="28.12 17.43 35.72 20.95 35.72 21.08 28.12 17.57 28.12 17.43"/><polygon class="cls-54" points="28.12 17.3 35.72 20.81 35.72 20.95 28.12 17.43 28.12 17.3"/><polygon class="cls-55" points="28.12 17.16 35.72 20.68 35.72 20.81 28.12 17.3 28.12 17.16"/><polygon class="cls-56" points="28.12 17.03 35.72 20.54 35.72 20.68 28.12 17.16 28.12 17.03"/><polygon class="cls-57" points="28.12 16.89 35.72 20.41 35.72 20.54 28.12 17.03 28.12 16.89"/><polygon class="cls-58" points="28.12 16.76 35.72 20.27 35.72 20.41 28.12 16.89 28.12 16.76"/><polygon class="cls-59" points="28.12 16.62 35.72 20.14 35.72 20.27 28.12 16.76 28.12 16.62"/><polygon class="cls-60" points="28.12 16.49 35.72 20 35.72 20.14 28.12 16.62 28.12 16.49"/><polygon class="cls-61" points="28.12 16.35 35.72 19.87 35.72 20 28.12 16.49 28.12 16.35"/><polygon class="cls-62" points="28.12 16.22 35.72 19.73 35.72 19.87 28.12 16.35 28.12 16.22"/><polygon class="cls-63" points="28.12 16.08 35.72 19.6 35.72 19.73 28.12 16.22 28.12 16.08"/><polygon class="cls-64" points="28.12 15.95 35.72 19.46 35.72 19.6 28.12 16.08 28.12 15.95"/><polygon class="cls-65" points="28.12 15.81 35.72 19.33 35.72 19.46 28.12 15.95 28.12 15.81"/><polygon class="cls-66" points="28.12 15.68 35.72 19.2 35.72 19.33 28.12 15.81 28.12 15.68"/><polygon class="cls-67" points="28.12 15.54 35.72 19.06 35.72 19.2 28.12 15.68 28.12 15.54"/><polygon class="cls-68" points="28.12 15.41 35.72 18.93 35.72 19.06 28.12 15.54 28.12 15.41"/><polygon class="cls-69" points="28.12 15.28 35.72 18.79 35.72 18.93 28.12 15.41 28.12 15.28"/><polygon class="cls-70" points="28.12 15.14 35.72 18.66 35.72 18.79 28.12 15.28 28.12 15.14"/><polygon class="cls-71" points="28.12 15.01 35.72 18.52 35.72 18.66 28.12 15.14 28.12 15.01"/><polygon class="cls-72" points="28.12 14.87 35.72 18.39 35.72 18.52 28.12 15.01 28.12 14.87"/><polygon class="cls-73" points="28.12 14.74 35.72 18.25 35.72 18.39 28.12 14.87 28.12 14.74"/><polygon class="cls-74" points="28.12 14.6 35.72 18.12 35.72 18.25 28.12 14.74 28.12 14.6"/><polygon class="cls-75" points="28.12 14.47 35.72 17.98 35.72 18.12 28.12 14.6 28.12 14.47"/><polygon class="cls-76" points="28.12 14.33 35.72 17.85 35.72 17.98 28.12 14.47 28.12 14.33"/><polygon class="cls-77" points="28.12 14.2 35.72 17.71 35.72 17.85 28.12 14.33 28.12 14.2"/><polygon class="cls-78" points="28.12 14.06 35.72 17.58 35.72 17.71 28.12 14.2 28.12 14.06"/><polygon class="cls-79" points="28.12 13.93 35.72 17.44 35.72 17.58 28.12 14.06 28.12 13.93"/><polygon class="cls-80" points="28.12 13.79 35.72 17.31 35.72 17.44 28.12 13.93 28.12 13.79"/><polygon class="cls-81" points="28.12 13.66 35.72 17.18 35.72 17.31 28.12 13.79 28.12 13.66"/><polygon class="cls-82" points="28.12 13.52 35.72 17.04 35.72 17.18 28.12 13.66 28.12 13.52"/><polygon class="cls-83" points="28.12 13.39 35.72 16.91 35.72 17.04 28.12 13.52 28.12 13.39"/><polygon class="cls-84" points="28.12 13.25 35.72 16.77 35.72 16.91 28.12 13.39 28.12 13.25"/><polygon class="cls-85" points="28.12 13.12 35.72 16.64 35.72 16.77 28.12 13.25 28.12 13.12"/><polygon class="cls-86" points="28.12 12.98 35.72 16.5 35.72 16.64 28.12 13.12 28.12 12.98"/><polygon class="cls-87" points="28.12 12.85 35.72 16.37 35.72 16.5 28.12 12.98 28.12 12.85"/><polygon class="cls-88" points="28.12 12.71 35.72 16.23 35.72 16.37 28.12 12.85 28.12 12.71"/><polygon class="cls-89" points="28.12 12.58 35.72 16.1 35.72 16.23 28.12 12.71 28.12 12.58"/><polygon class="cls-90" points="28.12 12.45 35.72 15.96 35.72 16.1 28.12 12.58 28.12 12.45"/><polygon class="cls-91" points="28.12 12.31 35.72 15.83 35.72 15.96 28.12 12.45 28.12 12.31"/><polygon class="cls-92" points="28.12 12.18 35.72 15.69 35.72 15.83 28.12 12.31 28.12 12.18"/><polygon class="cls-92" points="35.72 15.69 28.12 12.18 28.12 2.79 35.72 2.79 35.72 15.69"/></g><g class="cls-96"><polygon class="cls-3" points="38.24 25.07 45.55 28.45 38.24 28.45 38.24 25.07"/><polygon class="cls-3" points="38.24 24.96 45.78 28.45 45.55 28.45 38.24 25.07 38.24 24.96"/><polygon class="cls-4" points="38.24 24.86 45.84 28.37 45.84 28.45 45.78 28.45 38.24 24.96 38.24 24.86"/><polygon class="cls-5" points="38.24 24.75 45.84 28.26 45.84 28.37 38.24 24.86 38.24 24.75"/><polygon class="cls-6" points="38.24 24.65 45.84 28.16 45.84 28.26 38.24 24.75 38.24 24.65"/><polygon class="cls-7" points="38.24 24.54 45.84 28.05 45.84 28.16 38.24 24.65 38.24 24.54"/><polygon class="cls-8" points="38.24 24.43 45.84 27.95 45.84 28.05 38.24 24.54 38.24 24.43"/><polygon class="cls-9" points="38.24 24.33 45.84 27.84 45.84 27.95 38.24 24.43 38.24 24.33"/><polygon class="cls-10" points="38.24 24.22 45.84 27.73 45.84 27.84 38.24 24.33 38.24 24.22"/><polygon class="cls-11" points="38.24 24.11 45.84 27.63 45.84 27.73 38.24 24.22 38.24 24.11"/><polygon class="cls-12" points="38.24 24.01 45.84 27.52 45.84 27.63 38.24 24.11 38.24 24.01"/><polygon class="cls-13" points="38.24 23.9 45.84 27.41 45.84 27.52 38.24 24.01 38.24 23.9"/><polygon class="cls-14" points="38.24 23.8 45.84 27.31 45.84 27.41 38.24 23.9 38.24 23.8"/><polygon class="cls-15" points="38.24 23.69 45.84 27.2 45.84 27.31 38.24 23.8 38.24 23.69"/><polygon class="cls-16" points="38.24 23.58 45.84 27.09 45.84 27.2 38.24 23.69 38.24 23.58"/><polygon class="cls-17" points="38.24 23.48 45.84 26.99 45.84 27.09 38.24 23.58 38.24 23.48"/><polygon class="cls-18" points="38.24 23.37 45.84 26.88 45.84 26.99 38.24 23.48 38.24 23.37"/><polygon class="cls-19" points="38.24 23.27 45.84 26.78 45.84 26.88 38.24 23.37 38.24 23.27"/><polygon class="cls-20" points="38.24 23.16 45.84 26.67 45.84 26.78 38.24 23.27 38.24 23.16"/><polygon class="cls-21" points="38.24 23.05 45.84 26.56 45.84 26.67 38.24 23.16 38.24 23.05"/><polygon class="cls-22" points="38.24 22.95 45.84 26.46 45.84 26.56 38.24 23.05 38.24 22.95"/><polygon class="cls-23" points="38.24 22.84 45.84 26.35 45.84 26.46 38.24 22.95 38.24 22.84"/><polygon class="cls-24" points="38.24 22.73 45.84 26.25 45.84 26.35 38.24 22.84 38.24 22.73"/><polygon class="cls-25" points="38.24 22.63 45.84 26.14 45.84 26.25 38.24 22.73 38.24 22.63"/><polygon class="cls-26" points="38.24 22.52 45.84 26.03 45.84 26.14 38.24 22.63 38.24 22.52"/><polygon class="cls-27" points="38.24 22.42 45.84 25.93 45.84 26.03 38.24 22.52 38.24 22.42"/><polygon class="cls-28" points="38.24 22.31 45.84 25.82 45.84 25.93 38.24 22.42 38.24 22.31"/><polygon class="cls-29" points="38.24 22.2 45.84 25.71 45.84 25.82 38.24 22.31 38.24 22.2"/><polygon class="cls-30" points="38.24 22.1 45.84 25.61 45.84 25.71 38.24 22.2 38.24 22.1"/><polygon class="cls-31" points="38.24 21.99 45.84 25.5 45.84 25.61 38.24 22.1 38.24 21.99"/><polygon class="cls-32" points="38.24 21.89 45.84 25.4 45.84 25.5 38.24 21.99 38.24 21.89"/><polygon class="cls-33" points="38.24 21.78 45.84 25.29 45.84 25.4 38.24 21.89 38.24 21.78"/><polygon class="cls-34" points="38.24 21.67 45.84 25.18 45.84 25.29 38.24 21.78 38.24 21.67"/><polygon class="cls-35" points="38.24 21.57 45.84 25.08 45.84 25.18 38.24 21.67 38.24 21.57"/><polygon class="cls-36" points="38.24 21.46 45.84 24.97 45.84 25.08 38.24 21.57 38.24 21.46"/><polygon class="cls-37" points="38.24 21.35 45.84 24.86 45.84 24.97 38.24 21.46 38.24 21.35"/><polygon class="cls-38" points="38.24 21.25 45.84 24.76 45.84 24.86 38.24 21.35 38.24 21.25"/><polygon class="cls-39" points="38.24 21.14 45.84 24.65 45.84 24.76 38.24 21.25 38.24 21.14"/><polygon class="cls-40" points="38.24 21.04 45.84 24.55 45.84 24.65 38.24 21.14 38.24 21.04"/><polygon class="cls-41" points="38.24 20.93 45.84 24.44 45.84 24.55 38.24 21.04 38.24 20.93"/><polygon class="cls-42" points="38.24 20.82 45.84 24.33 45.84 24.44 38.24 20.93 38.24 20.82"/><polygon class="cls-43" points="38.24 20.72 45.84 24.23 45.84 24.33 38.24 20.82 38.24 20.72"/><polygon class="cls-44" points="38.24 20.61 45.84 24.12 45.84 24.23 38.24 20.72 38.24 20.61"/><polygon class="cls-45" points="38.24 20.5 45.84 24.02 45.84 24.12 38.24 20.61 38.24 20.5"/><polygon class="cls-46" points="38.24 20.4 45.84 23.91 45.84 24.02 38.24 20.5 38.24 20.4"/><polygon class="cls-47" points="38.24 20.29 45.84 23.8 45.84 23.91 38.24 20.4 38.24 20.29"/><polygon class="cls-48" points="38.24 20.19 45.84 23.7 45.84 23.8 38.24 20.29 38.24 20.19"/><polygon class="cls-49" points="38.24 20.08 45.84 23.59 45.84 23.7 38.24 20.19 38.24 20.08"/><polygon class="cls-50" points="38.24 19.97 45.84 23.48 45.84 23.59 38.24 20.08 38.24 19.97"/><polygon class="cls-51" points="38.24 19.87 45.84 23.38 45.84 23.48 38.24 19.97 38.24 19.87"/><polygon class="cls-52" points="38.24 19.76 45.84 23.27 45.84 23.38 38.24 19.87 38.24 19.76"/><polygon class="cls-53" points="38.24 19.66 45.84 23.17 45.84 23.27 38.24 19.76 38.24 19.66"/><polygon class="cls-54" points="38.24 19.55 45.84 23.06 45.84 23.17 38.24 19.66 38.24 19.55"/><polygon class="cls-55" points="38.24 19.44 45.84 22.95 45.84 23.06 38.24 19.55 38.24 19.44"/><polygon class="cls-56" points="38.24 19.34 45.84 22.85 45.84 22.95 38.24 19.44 38.24 19.34"/><polygon class="cls-57" points="38.24 19.23 45.84 22.74 45.84 22.85 38.24 19.34 38.24 19.23"/><polygon class="cls-58" points="38.24 19.12 45.84 22.64 45.84 22.74 38.24 19.23 38.24 19.12"/><polygon class="cls-59" points="38.24 19.02 45.84 22.53 45.84 22.64 38.24 19.12 38.24 19.02"/><polygon class="cls-60" points="38.24 18.91 45.84 22.42 45.84 22.53 38.24 19.02 38.24 18.91"/><polygon class="cls-61" points="38.24 18.81 45.84 22.32 45.84 22.42 38.24 18.91 38.24 18.81"/><polygon class="cls-62" points="38.24 18.7 45.84 22.21 45.84 22.32 38.24 18.81 38.24 18.7"/><polygon class="cls-63" points="38.24 18.59 45.84 22.1 45.84 22.21 38.24 18.7 38.24 18.59"/><polygon class="cls-64" points="38.24 18.49 45.84 22 45.84 22.1 38.24 18.59 38.24 18.49"/><polygon class="cls-65" points="38.24 18.38 45.84 21.89 45.84 22 38.24 18.49 38.24 18.38"/><polygon class="cls-66" points="38.24 18.27 45.84 21.79 45.84 21.89 38.24 18.38 38.24 18.27"/><polygon class="cls-67" points="38.24 18.17 45.84 21.68 45.84 21.79 38.24 18.27 38.24 18.17"/><polygon class="cls-68" points="38.24 18.06 45.84 21.57 45.84 21.68 38.24 18.17 38.24 18.06"/><polygon class="cls-69" points="38.24 17.96 45.84 21.47 45.84 21.57 38.24 18.06 38.24 17.96"/><polygon class="cls-70" points="38.24 17.85 45.84 21.36 45.84 21.47 38.24 17.96 38.24 17.85"/><polygon class="cls-71" points="38.24 17.74 45.84 21.25 45.84 21.36 38.24 17.85 38.24 17.74"/><polygon class="cls-72" points="38.24 17.64 45.84 21.15 45.84 21.25 38.24 17.74 38.24 17.64"/><polygon class="cls-73" points="38.24 17.53 45.84 21.04 45.84 21.15 38.24 17.64 38.24 17.53"/><polygon class="cls-74" points="38.24 17.43 45.84 20.94 45.84 21.04 38.24 17.53 38.24 17.43"/><polygon class="cls-75" points="38.24 17.32 45.84 20.83 45.84 20.94 38.24 17.43 38.24 17.32"/><polygon class="cls-76" points="38.24 17.21 45.84 20.72 45.84 20.83 38.24 17.32 38.24 17.21"/><polygon class="cls-77" points="38.24 17.11 45.84 20.62 45.84 20.72 38.24 17.21 38.24 17.11"/><polygon class="cls-78" points="38.24 17 45.84 20.51 45.84 20.62 38.24 17.11 38.24 17"/><polygon class="cls-79" points="38.24 16.89 45.84 20.41 45.84 20.51 38.24 17 38.24 16.89"/><polygon class="cls-80" points="38.24 16.79 45.84 20.3 45.84 20.41 38.24 16.89 38.24 16.79"/><polygon class="cls-81" points="38.24 16.68 45.84 20.19 45.84 20.3 38.24 16.79 38.24 16.68"/><polygon class="cls-82" points="38.24 16.58 45.84 20.09 45.84 20.19 38.24 16.68 38.24 16.58"/><polygon class="cls-83" points="38.24 16.47 45.84 19.98 45.84 20.09 38.24 16.58 38.24 16.47"/><polygon class="cls-84" points="38.24 16.36 45.84 19.87 45.84 19.98 38.24 16.47 38.24 16.36"/><polygon class="cls-85" points="38.24 16.26 45.84 19.77 45.84 19.87 38.24 16.36 38.24 16.26"/><polygon class="cls-86" points="38.24 16.15 45.84 19.66 45.84 19.77 38.24 16.26 38.24 16.15"/><polygon class="cls-87" points="38.24 16.05 45.84 19.55 45.84 19.66 38.24 16.15 38.24 16.05"/><polygon class="cls-88" points="38.24 15.94 45.84 19.45 45.84 19.55 38.24 16.05 38.24 15.94"/><polygon class="cls-89" points="38.24 15.83 45.84 19.34 45.84 19.45 38.24 15.94 38.24 15.83"/><polygon class="cls-90" points="38.24 15.73 45.84 19.24 45.84 19.34 38.24 15.83 38.24 15.73"/><polygon class="cls-91" points="38.24 15.62 45.84 19.13 45.84 19.24 38.24 15.73 38.24 15.62"/><polygon class="cls-92" points="38.24 15.51 45.84 19.02 45.84 19.13 38.24 15.62 38.24 15.51"/><polygon class="cls-92" points="45.84 19.02 38.24 15.51 38.24 8.74 45.84 8.74 45.84 19.02"/></g><circle class="cls-97" cx="15.85" cy="45.22" r="2.85"/><circle class="cls-97" cx="26.12" cy="45.22" r="2.85"/><circle class="cls-97" cx="36.59" cy="45.22" r="2.85"/><g class="cls-98"><path class="cls-92" d="M59.18,32.25H82.1V42.47H62.64a12.6,12.6,0,0,1-1.24,3.9,20.56,20.56,0,0,1-2.89,4.06L55.45,48a17.14,17.14,0,0,0,2.44-3.07,8.46,8.46,0,0,0,1-2.77,21.22,21.22,0,0,0,.25-3.63ZM85,21.87V25H72.15v2.45H82.27v3.06H58.78V27.41h9.74V25H56V21.87H68.52V19l3.63.16v2.69ZM68.63,39.44V35.38H62.81v4.06Zm3.56,0H78.4V35.38H72.19Z" transform="translate(0.04 0)"/><path class="cls-92" d="M112.1,45q2.22,0,6.52-.13L118,48.41q-2.82.14-6.38.14t-6.39-.14c-1.92-.08-3.42-.21-4.5-.36a9.12,9.12,0,0,1-2.77-.83,7.91,7.91,0,0,1-2.24-1.76c-.6-.67-1-1-1.24-1a.53.53,0,0,0-.32.17q-.18.16-.42.42c-.16.17-.28.3-.37.38a34.87,34.87,0,0,0-2.59,3.23l-2.58-3.23a33.38,33.38,0,0,1,2.62-3.29c.67-.76,1-1.21,1.14-1.34a5.18,5.18,0,0,1,1.18-1,2.24,2.24,0,0,1,1.14-.27,2.11,2.11,0,0,1,.91.2,101.64,101.64,0,0,0,8.63-5.61q4.37-3.16,7.19-5.65H91.78V24.73h10.65c-.59-2.15-1-3.65-1.35-4.5l3.77-.54.4,1.24,1.18,3.8h9.71v3.79A67.69,67.69,0,0,1,108,35.71a89.78,89.78,0,0,1-10.08,6.83,5.92,5.92,0,0,0,2.64,1.73,19.34,19.34,0,0,0,4.39.52Q108.88,45,112.1,45Z" transform="translate(0.04 0)"/><path class="cls-92" d="M136.19,35.61V49.12h-3.36V35.61l-3.72,0a39.71,39.71,0,0,1-.51,5.7,17.45,17.45,0,0,1-1.24,4.09,31.42,31.42,0,0,1-2.49,4.36l-3.26-1.92A29.87,29.87,0,0,0,124.1,44a12.34,12.34,0,0,0,1.16-3.44,35.89,35.89,0,0,0,.45-5h-3.86V32.19h3.89v-7.7h-2.51V21.1h15.59v3.39h-2.63v7.7h3.73v3.15a52.94,52.94,0,0,0,4.32-3.41A42.79,42.79,0,0,0,148,28.32l2.39,2.56a42.1,42.1,0,0,1-4.72,4.53,65.58,65.58,0,0,1-5.7,4.27l-2-3c.36-.23.89-.58,1.61-1.08Zm-7.05-11.12v7.7h3.69v-7.7Zm22.31,14.79a48.42,48.42,0,0,1-12.77,10.55l-2.12-3.09a41.73,41.73,0,0,0,6.94-4.59A44.8,44.8,0,0,0,149,36.82ZM138,27.11a39.62,39.62,0,0,0,4.87-3.51,39.84,39.84,0,0,0,4.34-4.08l2.42,2.42a31.73,31.73,0,0,1-4.29,4.15,65.09,65.09,0,0,1-5.39,4Z" transform="translate(0.04 0)"/></g></g></g></g></g></svg>